<svg xmlns="http://www.w3.org/2000/svg" xmlns:xlink="http://www.w3.org/1999/xlink" version="1.1" x="0px" y="0px" width="212.598px" height="70.293px" viewBox="0 0 212.598 70.293" enable-background="new 0 0 212.598 70.293" xml:space="preserve"><pattern y="70.3" width="69" height="69" patternUnits="userSpaceOnUse" viewBox="2.125 -70.896 69 69" overflow="visible"><g><polygon fill="none" points="71.1,-1.9 2.1,-1.9 2.1,-70.9 71.1,-70.9"/><polygon fill="#F7BC60" points="71.1,-1.9 2.1,-1.9 2.1,-70.9 71.1,-70.9"/><g><path fill="#FFFFFF" d="M61.772-71.653c0.018 0.1 0 0.127-0.026 0.19c-0.053 0.101-0.112 0.063-0.165 0.1 c-0.05 0.063-0.099 0.276-0.079 0.362c-0.169 0.058-0.01 0.227-0.015 0.35c-0.002 0.05-0.041 0.105-0.045 0.2 c-0.01 0.1 0 0.3 0.1 0.37c0.097 0.2 0.3 0.4 0.4 0.544c0.19 0.1 0.4 0.6 0.6 0.6 c0.177 0 0.384-0.104 0.543-0.143c0.18-0.043 0.4 0 0.571-0.053c0.222-0.079 0.127-0.337 0.288-0.45 c0.104-0.074 0.287-0.01 0.406-0.051c0.2-0.069 0.339-0.263 0.376-0.46c0.016-0.082 0.01-0.145 0.039-0.221 c0.039-0.103 0.111-0.16 0.09-0.293c-0.01-0.062-0.052-0.12-0.064-0.187c-0.022-0.114 0.002-0.224 0-0.337 c-0.003-0.2 0.017-0.379-0.078-0.55c-0.38-0.688-1.236-0.929-1.975-0.789c-0.18 0.034-0.287 0.126-0.442 0.2 c-0.17 0.088-0.139 0.166-0.318 0.224c-0.081 0.026-0.216 0.124-0.215 0.224c0.001 0.1 0 0.1 0 0.2 c-0.021 0.011-0.021-0.005-0.03-0.025"/><path fill="#FFFFFF" d="M54.105-71.653c0.018 0.1 0 0.127-0.026 0.19c-0.053 0.101-0.112 0.063-0.165 0.1 c-0.05 0.063-0.099 0.276-0.079 0.362c-0.169 0.058-0.01 0.227-0.015 0.35c-0.002 0.05-0.041 0.105-0.045 0.2 c-0.01 0.1 0 0.3 0.1 0.37c0.097 0.2 0.3 0.4 0.4 0.544c0.19 0.1 0.4 0.6 0.6 0.6 c0.177 0 0.384-0.104 0.543-0.143c0.18-0.043 0.4 0 0.571-0.053c0.222-0.079 0.127-0.337 0.288-0.45 c0.104-0.074 0.287-0.01 0.406-0.051c0.2-0.069 0.339-0.263 0.376-0.46c0.016-0.082 0.01-0.145 0.039-0.221 c0.039-0.103 0.111-0.16 0.09-0.293c-0.01-0.062-0.052-0.12-0.064-0.187c-0.022-0.114 0.002-0.224 0-0.337 c-0.003-0.2 0.017-0.379-0.078-0.55c-0.38-0.688-1.236-0.929-1.975-0.789c-0.18 0.034-0.287 0.126-0.442 0.2 c-0.17 0.088-0.139 0.166-0.318 0.224c-0.081 0.026-0.216 0.124-0.215 0.224c0.001 0.1 0 0.1 0 0.2 c-0.021 0.011-0.021-0.005-0.03-0.025"/><path fill="#FFFFFF" d="M46.439-71.653c0.018 0.1 0 0.127-0.026 0.19c-0.053 0.101-0.112 0.063-0.165 0.1 c-0.05 0.063-0.099 0.276-0.079 0.362c-0.169 0.058-0.01 0.227-0.015 0.35c-0.002 0.05-0.041 0.105-0.045 0.2 c-0.01 0.1 0 0.3 0.1 0.37c0.097 0.2 0.3 0.4 0.4 0.544c0.19 0.1 0.4 0.6 0.6 0.6 c0.177 0 0.384-0.104 0.543-0.143c0.18-0.043 0.4 0 0.571-0.053c0.222-0.079 0.127-0.337 0.288-0.45 c0.104-0.074 0.287-0.01 0.406-0.051c0.2-0.069 0.339-0.263 0.376-0.46c0.016-0.082 0.01-0.145 0.039-0.221 c0.039-0.103 0.111-0.16 0.09-0.293c-0.01-0.062-0.052-0.12-0.064-0.187c-0.022-0.114 0.002-0.224 0-0.337 c-0.003-0.2 0.017-0.379-0.078-0.55c-0.38-0.688-1.236-0.929-1.975-0.789c-0.18 0.034-0.287 0.126-0.442 0.2 c-0.17 0.088-0.139 0.166-0.318 0.224c-0.081 0.026-0.216 0.124-0.215 0.224c0.001 0.1 0 0.1 0 0.2 c-0.021 0.011-0.021-0.005-0.03-0.025"/><path fill="#FFFFFF" d="M38.772-71.653c0.018 0.1 0 0.127-0.026 0.19c-0.053 0.101-0.112 0.063-0.165 0.1 c-0.05 0.063-0.099 0.276-0.079 0.362c-0.169 0.058-0.01 0.227-0.015 0.35c-0.002 0.05-0.041 0.105-0.045 0.2 c-0.01 0.1 0 0.3 0.1 0.37c0.097 0.2 0.3 0.4 0.4 0.544c0.19 0.1 0.4 0.6 0.6 0.6 c0.177 0 0.384-0.104 0.543-0.143c0.18-0.043 0.4 0 0.571-0.053c0.222-0.079 0.127-0.337 0.288-0.45 c0.104-0.074 0.287-0.01 0.406-0.051c0.2-0.069 0.339-0.263 0.376-0.46c0.016-0.082 0.01-0.145 0.039-0.221 c0.039-0.103 0.111-0.16 0.09-0.293c-0.01-0.062-0.052-0.12-0.064-0.187c-0.022-0.114 0.002-0.224 0-0.337 c-0.003-0.2 0.017-0.379-0.078-0.55c-0.38-0.688-1.236-0.929-1.975-0.789c-0.18 0.034-0.287 0.126-0.442 0.2 c-0.17 0.088-0.139 0.166-0.318 0.224c-0.081 0.026-0.216 0.124-0.215 0.224c0.001 0.1 0 0.1 0 0.2 c-0.021 0.011-0.021-0.005-0.03-0.025"/><path fill="#FFFFFF" d="M31.105-71.653c0.018 0.1 0 0.127-0.026 0.19c-0.053 0.101-0.112 0.063-0.165 0.1 c-0.05 0.063-0.099 0.276-0.079 0.362c-0.169 0.058-0.01 0.227-0.015 0.35c-0.002 0.05-0.041 0.105-0.045 0.2 c-0.01 0.1 0 0.3 0.1 0.37c0.097 0.2 0.3 0.4 0.4 0.544c0.19 0.1 0.4 0.6 0.6 0.6 c0.177 0 0.384-0.104 0.543-0.143c0.18-0.043 0.4 0 0.571-0.053c0.222-0.079 0.127-0.337 0.288-0.45 c0.104-0.074 0.287-0.01 0.406-0.051c0.2-0.069 0.339-0.263 0.376-0.46c0.016-0.082 0.01-0.145 0.039-0.221 c0.039-0.103 0.111-0.16 0.09-0.293c-0.01-0.062-0.052-0.12-0.064-0.187c-0.022-0.114 0.002-0.224 0-0.337 c-0.003-0.2 0.017-0.379-0.078-0.55c-0.38-0.688-1.236-0.929-1.975-0.789c-0.18 0.034-0.287 0.126-0.442 0.2 c-0.17 0.088-0.139 0.166-0.318 0.224c-0.081 0.026-0.216 0.124-0.215 0.224c0.001 0.1 0 0.1 0 0.2 c-0.021 0.011-0.021-0.005-0.03-0.025"/><path fill="#FFFFFF" d="M23.439-71.653c0.018 0.1 0 0.127-0.026 0.19c-0.053 0.101-0.112 0.063-0.165 0.1 c-0.05 0.063-0.099 0.276-0.079 0.362c-0.169 0.058-0.01 0.227-0.015 0.35c-0.002 0.05-0.041 0.105-0.045 0.2 c-0.01 0.1 0 0.3 0.1 0.37c0.097 0.2 0.3 0.4 0.4 0.544c0.19 0.1 0.4 0.6 0.6 0.6 c0.177 0 0.384-0.104 0.543-0.143c0.18-0.043 0.4 0 0.571-0.053c0.222-0.079 0.127-0.337 0.288-0.45 c0.104-0.074 0.287-0.01 0.406-0.051c0.2-0.069 0.339-0.263 0.376-0.46c0.016-0.082 0.01-0.145 0.039-0.221 c0.039-0.103 0.111-0.16 0.09-0.293c-0.01-0.062-0.052-0.12-0.064-0.187c-0.022-0.114 0.002-0.224 0-0.337 c-0.003-0.2 0.017-0.379-0.078-0.55c-0.38-0.688-1.236-0.929-1.975-0.789c-0.18 0.034-0.287 0.126-0.442 0.2 c-0.17 0.088-0.139 0.166-0.318 0.224c-0.081 0.026-0.216 0.124-0.215 0.224c0.001 0.1 0 0.1 0 0.2 c-0.021 0.011-0.021-0.005-0.03-0.025"/><path fill="#FFFFFF" d="M15.772-71.653c0.018 0.1 0 0.127-0.026 0.19c-0.053 0.101-0.112 0.063-0.165 0.1 c-0.05 0.063-0.099 0.276-0.079 0.362c-0.169 0.058-0.01 0.227-0.015 0.35c-0.002 0.05-0.041 0.105-0.045 0.2 c-0.01 0.1 0 0.3 0.1 0.37c0.097 0.2 0.3 0.4 0.4 0.544c0.19 0.1 0.4 0.6 0.6 0.6 c0.177 0 0.384-0.104 0.543-0.143c0.18-0.043 0.4 0 0.571-0.053c0.222-0.079 0.127-0.337 0.288-0.45 c0.104-0.074 0.287-0.01 0.406-0.051c0.2-0.069 0.339-0.263 0.376-0.46c0.016-0.082 0.01-0.145 0.039-0.221 c0.039-0.103 0.111-0.16 0.09-0.293c-0.01-0.062-0.052-0.12-0.064-0.187c-0.022-0.114 0.002-0.224 0-0.337 c-0.003-0.2 0.017-0.379-0.078-0.55c-0.38-0.688-1.236-0.929-1.975-0.789c-0.18 0.034-0.287 0.126-0.442 0.2 c-0.17 0.088-0.139 0.166-0.318 0.224c-0.081 0.026-0.216 0.124-0.215 0.224c0.001 0.1 0 0.1 0 0.2 c-0.021 0.011-0.021-0.005-0.03-0.025"/><path fill="#FFFFFF" d="M8.105-71.653c0.018 0.1 0 0.127-0.026 0.19c-0.053 0.101-0.112 0.063-0.165 0.1 c-0.05 0.063-0.099 0.276-0.079 0.362c-0.169 0.058-0.01 0.227-0.015 0.35c-0.002 0.05-0.041 0.105-0.045 0.2 c-0.01 0.1 0 0.3 0.1 0.37c0.097 0.2 0.3 0.4 0.4 0.544c0.19 0.1 0.4 0.6 0.6 0.6 c0.177 0 0.384-0.104 0.543-0.143c0.18-0.043 0.4 0 0.571-0.053c0.222-0.079 0.127-0.337 0.288-0.45 c0.104-0.074 0.287-0.01 0.406-0.051c0.2-0.069 0.339-0.263 0.376-0.46c0.016-0.082 0.01-0.145 0.039-0.221 c0.039-0.103 0.111-0.16 0.09-0.293c-0.01-0.062-0.052-0.12-0.064-0.187c-0.022-0.114 0.002-0.224 0-0.337 c-0.003-0.2 0.017-0.379-0.078-0.55c-0.38-0.688-1.236-0.929-1.975-0.789c-0.18 0.034-0.287 0.126-0.442 0.2 c-0.17 0.088-0.139 0.166-0.318 0.224c-0.081 0.026-0.216 0.124-0.215 0.224c0.001 0.1 0 0.1 0 0.2 c-0.021 0.011-0.021-0.005-0.03-0.025"/><path fill="#FFFFFF" d="M0.439-71.653c0.018 0.1 0 0.127-0.026 0.19C0.361-71.362 0.3-71.4 0.248-71.335 c-0.051 0.063-0.099 0.276-0.079 0.362c-0.169 0.058-0.01 0.227-0.015 0.35c-0.002 0.05-0.041 0.105-0.045 0.2 c-0.01 0.1 0 0.3 0.1 0.37c0.097 0.2 0.3 0.4 0.4 0.544c0.19 0.1 0.4 0.6 0.6 0.6 c0.177 0 0.384-0.104 0.543-0.143c0.18-0.043 0.4 0 0.571-0.053c0.222-0.079 0.127-0.337 0.288-0.45 c0.104-0.074 0.287-0.01 0.406-0.051c0.2-0.07 0.339-0.263 0.376-0.46c0.016-0.082 0.01-0.145 0.039-0.221 c0.038-0.103 0.111-0.16 0.09-0.293c-0.01-0.062-0.051-0.12-0.064-0.187c-0.021-0.114 0.002-0.224 0-0.337 c-0.003-0.2 0.017-0.379-0.078-0.55c-0.38-0.688-1.236-0.929-1.975-0.789c-0.18 0.034-0.287 0.126-0.442 0.2 c-0.17 0.088-0.139 0.166-0.318 0.224c-0.081 0.026-0.215 0.124-0.215 0.224c0.002 0.1 0 0.1 0 0.2 c-0.021 0.011-0.021-0.005-0.03-0.025"/></g><g><path fill="#FFFFFF" d="M69.439-71.653c0.018 0.1 0 0.127-0.026 0.19c-0.052 0.101-0.113 0.063-0.165 0.1 c-0.051 0.063-0.099 0.276-0.079 0.362c-0.169 0.058-0.01 0.227-0.015 0.35c-0.002 0.05-0.041 0.105-0.045 0.2 c-0.01 0.1 0 0.3 0.1 0.37c0.097 0.2 0.3 0.4 0.4 0.544c0.19 0.1 0.4 0.6 0.6 0.6 c0.177 0 0.384-0.104 0.543-0.143c0.18-0.043 0.4 0 0.571-0.053c0.222-0.079 0.127-0.337 0.288-0.45 c0.104-0.074 0.287-0.01 0.406-0.051c0.2-0.07 0.339-0.263 0.376-0.46c0.016-0.082 0.01-0.145 0.039-0.221 c0.038-0.103 0.111-0.16 0.09-0.293c-0.01-0.062-0.051-0.12-0.064-0.187c-0.021-0.114 0.002-0.224 0-0.337 c-0.003-0.2 0.017-0.379-0.078-0.55c-0.38-0.688-1.236-0.929-1.975-0.789c-0.18 0.034-0.287 0.126-0.442 0.2 c-0.17 0.088-0.139 0.166-0.318 0.224c-0.081 0.026-0.215 0.124-0.215 0.224c0.002 0.1 0 0.1 0 0.2 c-0.021 0.011-0.021-0.005-0.03-0.025"/></g><path fill="#FFFFFF" d="M0.495-71.653c0.018 0.1 0 0.127-0.026 0.19c-0.052 0.101-0.113 0.063-0.165 0.1 c-0.051 0.063-0.099 0.276-0.079 0.362c-0.169 0.058-0.01 0.227-0.015 0.35c-0.002 0.05-0.041 0.105-0.045 0.2 c-0.01 0.1 0 0.3 0.1 0.37c0.097 0.2 0.3 0.4 0.4 0.544c0.19 0.1 0.4 0.6 0.6 0.6 c0.177 0 0.384-0.104 0.543-0.143c0.18-0.043 0.4 0 0.571-0.053c0.222-0.079 0.127-0.337 0.288-0.45 c0.104-0.074 0.287-0.01 0.406-0.051c0.2-0.07 0.339-0.263 0.376-0.46c0.016-0.082 0.01-0.145 0.039-0.221 c0.038-0.103 0.111-0.16 0.09-0.293c-0.01-0.062-0.051-0.12-0.064-0.187c-0.021-0.114 0.002-0.224 0-0.337 c-0.003-0.2 0.017-0.379-0.078-0.55c-0.38-0.688-1.236-0.929-1.975-0.789c-0.18 0.034-0.287 0.126-0.442 0.2 c-0.17 0.088-0.139 0.166-0.318 0.224c-0.081 0.026-0.215 0.124-0.215 0.224C0.5-71.68 0.503-71.744 0.51-71.626 c-0.021 0.011-0.021-0.005-0.03-0.025"/><g><g><path fill="#FFFFFF" d="M69.439-64.001c0.018 0.1 0 0.127-0.026 0.19c-0.053 0.101-0.112 0.063-0.165 0.1 c-0.05 0.063-0.099 0.276-0.079 0.362c-0.169 0.058-0.01 0.227-0.015 0.35c-0.002 0.05-0.041 0.105-0.045 0.2 c-0.01 0.1 0 0.3 0.1 0.37c0.097 0.2 0.3 0.4 0.4 0.544c0.19 0.1 0.4 0.6 0.6 0.6 c0.177 0 0.384-0.104 0.543-0.143c0.18-0.043 0.4 0 0.571-0.053c0.222-0.079 0.127-0.337 0.288-0.45 c0.104-0.074 0.287-0.01 0.406-0.051c0.2-0.069 0.339-0.263 0.376-0.46c0.016-0.082 0.01-0.145 0.039-0.221 c0.039-0.103 0.111-0.16 0.09-0.293c-0.01-0.062-0.052-0.12-0.064-0.187c-0.022-0.114 0.002-0.224 0-0.337 c-0.003-0.2 0.017-0.379-0.078-0.55c-0.38-0.688-1.236-0.929-1.975-0.789c-0.18 0.034-0.287 0.126-0.442 0.2 c-0.17 0.088-0.139 0.166-0.318 0.224c-0.081 0.026-0.216 0.124-0.215 0.224c0.001 0.1 0 0.1 0 0.2 c-0.021 0.011-0.021-0.005-0.03-0.025"/><path fill="#FFFFFF" d="M61.778-64.001c0.018 0.1 0 0.127-0.026 0.19c-0.053 0.101-0.112 0.063-0.165 0.1 c-0.05 0.063-0.099 0.276-0.079 0.362c-0.169 0.058-0.009 0.227-0.015 0.35c-0.002 0.05-0.041 0.105-0.045 0.2 c-0.01 0.1 0 0.3 0.1 0.37c0.097 0.2 0.3 0.4 0.4 0.544c0.19 0.1 0.4 0.6 0.6 0.6 c0.177 0 0.384-0.104 0.543-0.143c0.18-0.043 0.4 0 0.571-0.053c0.222-0.079 0.127-0.337 0.288-0.45 c0.104-0.074 0.287-0.01 0.406-0.051c0.2-0.069 0.339-0.263 0.376-0.46c0.016-0.082 0.01-0.145 0.039-0.221 c0.039-0.103 0.111-0.16 0.09-0.293c-0.01-0.062-0.052-0.12-0.064-0.187c-0.022-0.114 0.002-0.224 0-0.337 c-0.003-0.2 0.017-0.379-0.078-0.55c-0.38-0.688-1.236-0.929-1.975-0.789c-0.18 0.034-0.287 0.126-0.442 0.2 c-0.17 0.088-0.139 0.166-0.318 0.224c-0.081 0.026-0.216 0.124-0.215 0.224c0.001 0.1 0 0.1 0 0.2 c-0.021 0.011-0.021-0.005-0.03-0.025"/><path fill="#FFFFFF" d="M54.118-64.001c0.018 0.1 0 0.127-0.026 0.19c-0.053 0.101-0.112 0.063-0.165 0.1 c-0.05 0.063-0.099 0.276-0.079 0.362c-0.169 0.058-0.009 0.227-0.015 0.35c-0.002 0.05-0.041 0.105-0.045 0.2 c-0.01 0.1 0 0.3 0.1 0.37c0.097 0.2 0.3 0.4 0.4 0.544c0.19 0.1 0.4 0.6 0.6 0.6 c0.177 0 0.384-0.104 0.543-0.143c0.18-0.043 0.4 0 0.571-0.053c0.222-0.079 0.127-0.337 0.288-0.45 c0.104-0.074 0.287-0.01 0.406-0.051c0.2-0.069 0.339-0.263 0.376-0.46c0.016-0.082 0.01-0.145 0.039-0.221 c0.039-0.103 0.111-0.16 0.09-0.293c-0.01-0.062-0.052-0.12-0.064-0.187c-0.022-0.114 0.002-0.224 0-0.337 c-0.003-0.2 0.017-0.379-0.078-0.55c-0.38-0.688-1.236-0.929-1.975-0.789c-0.18 0.034-0.287 0.126-0.442 0.2 c-0.17 0.088-0.139 0.166-0.318 0.224c-0.081 0.026-0.216 0.124-0.215 0.224c0.001 0.1 0 0.1 0 0.2 c-0.021 0.011-0.021-0.005-0.03-0.025"/><path fill="#FFFFFF" d="M46.458-64.001c0.018 0.1 0 0.127-0.026 0.19c-0.053 0.101-0.112 0.063-0.165 0.1 c-0.05 0.063-0.099 0.276-0.079 0.362c-0.169 0.058-0.009 0.227-0.015 0.35c-0.002 0.05-0.041 0.105-0.045 0.2 c-0.01 0.1 0 0.3 0.1 0.37c0.097 0.2 0.3 0.4 0.4 0.544c0.19 0.1 0.4 0.6 0.6 0.6 c0.177 0 0.384-0.104 0.543-0.143c0.18-0.043 0.4 0 0.571-0.053c0.222-0.079 0.127-0.337 0.288-0.45 c0.104-0.074 0.287-0.01 0.406-0.051c0.2-0.069 0.339-0.263 0.376-0.46c0.016-0.082 0.01-0.145 0.039-0.221 c0.039-0.103 0.111-0.16 0.09-0.293c-0.01-0.062-0.052-0.12-0.064-0.187c-0.022-0.114 0.002-0.224 0-0.337 c-0.003-0.2 0.017-0.379-0.078-0.55c-0.38-0.688-1.236-0.929-1.975-0.789c-0.18 0.034-0.287 0.126-0.442 0.2 c-0.17 0.088-0.139 0.166-0.318 0.224c-0.081 0.026-0.216 0.124-0.215 0.224c0.001 0.1 0 0.1 0 0.2 c-0.021 0.011-0.021-0.005-0.03-0.025"/><path fill="#FFFFFF" d="M38.797-64.001c0.018 0.1 0 0.127-0.026 0.19c-0.053 0.101-0.112 0.063-0.165 0.1 c-0.05 0.063-0.099 0.276-0.079 0.362c-0.169 0.058-0.009 0.227-0.015 0.35c-0.002 0.05-0.041 0.105-0.045 0.2 c-0.01 0.1 0 0.3 0.1 0.37c0.097 0.2 0.3 0.4 0.4 0.544c0.19 0.1 0.4 0.6 0.6 0.6 c0.177 0 0.384-0.104 0.543-0.143c0.18-0.043 0.4 0 0.571-0.053c0.222-0.079 0.127-0.337 0.288-0.45 c0.104-0.074 0.287-0.01 0.406-0.051c0.2-0.069 0.339-0.263 0.376-0.46c0.016-0.082 0.01-0.145 0.039-0.221 c0.039-0.103 0.111-0.16 0.09-0.293c-0.01-0.062-0.052-0.12-0.064-0.187c-0.022-0.114 0.002-0.224 0-0.337 c-0.003-0.2 0.017-0.379-0.078-0.55c-0.38-0.688-1.236-0.929-1.975-0.789c-0.18 0.034-0.287 0.126-0.442 0.2 c-0.17 0.088-0.139 0.166-0.318 0.224c-0.081 0.026-0.216 0.124-0.215 0.224c0.001 0.1 0 0.1 0 0.2 c-0.021 0.011-0.021-0.005-0.03-0.025"/><path fill="#FFFFFF" d="M31.137-64.001c0.018 0.1 0 0.127-0.026 0.19c-0.053 0.101-0.112 0.063-0.165 0.1 c-0.05 0.063-0.099 0.276-0.079 0.362c-0.169 0.058-0.009 0.227-0.015 0.35c-0.002 0.05-0.041 0.105-0.045 0.2 c-0.01 0.1 0 0.3 0.1 0.37c0.097 0.2 0.3 0.4 0.4 0.544c0.19 0.1 0.4 0.6 0.6 0.6 c0.177 0 0.384-0.104 0.543-0.143c0.18-0.043 0.4 0 0.571-0.053c0.222-0.079 0.127-0.337 0.288-0.45 c0.104-0.074 0.287-0.01 0.406-0.051c0.2-0.069 0.339-0.263 0.376-0.46c0.016-0.082 0.01-0.145 0.039-0.221 c0.039-0.103 0.111-0.16 0.09-0.293c-0.01-0.062-0.052-0.12-0.064-0.187c-0.022-0.114 0.002-0.224 0-0.337 c-0.003-0.2 0.017-0.379-0.078-0.55c-0.38-0.688-1.236-0.929-1.975-0.789c-0.18 0.034-0.287 0.126-0.442 0.2 c-0.17 0.088-0.139 0.166-0.318 0.224c-0.081 0.026-0.216 0.124-0.215 0.224c0.001 0.1 0 0.1 0 0.2 c-0.021 0.011-0.021-0.005-0.03-0.025"/><path fill="#FFFFFF" d="M23.477-64.001c0.018 0.1 0 0.127-0.026 0.19c-0.053 0.101-0.112 0.063-0.165 0.1 c-0.05 0.063-0.099 0.276-0.079 0.362c-0.169 0.058-0.009 0.227-0.015 0.35c-0.002 0.05-0.041 0.105-0.045 0.2 c-0.01 0.1 0 0.3 0.1 0.37c0.097 0.2 0.3 0.4 0.4 0.544c0.19 0.1 0.4 0.6 0.6 0.6 c0.177 0 0.384-0.104 0.543-0.143c0.18-0.043 0.4 0 0.571-0.053c0.222-0.079 0.127-0.337 0.288-0.45 c0.104-0.074 0.287-0.01 0.406-0.051c0.2-0.069 0.339-0.263 0.376-0.46c0.016-0.082 0.01-0.145 0.039-0.221 c0.039-0.103 0.111-0.16 0.09-0.293c-0.01-0.062-0.052-0.12-0.064-0.187c-0.022-0.114 0.002-0.224 0-0.337 c-0.003-0.2 0.017-0.379-0.078-0.55c-0.38-0.688-1.236-0.929-1.975-0.789c-0.18 0.034-0.287 0.126-0.442 0.2 c-0.17 0.088-0.139 0.166-0.318 0.224c-0.081 0.026-0.216 0.124-0.215 0.224c0.001 0.1 0 0.1 0 0.2 c-0.021 0.011-0.021-0.005-0.03-0.025"/><path fill="#FFFFFF" d="M15.816-64.001c0.018 0.1 0 0.127-0.026 0.19c-0.053 0.101-0.112 0.063-0.165 0.1 c-0.05 0.063-0.099 0.276-0.079 0.362c-0.169 0.058-0.009 0.227-0.015 0.35c-0.002 0.05-0.041 0.105-0.045 0.2 c-0.01 0.1 0 0.3 0.1 0.37c0.097 0.2 0.3 0.4 0.4 0.544c0.19 0.1 0.4 0.6 0.6 0.6 c0.177 0 0.384-0.104 0.543-0.143c0.18-0.043 0.4 0 0.571-0.053c0.222-0.079 0.127-0.337 0.288-0.45 c0.104-0.074 0.287-0.01 0.406-0.051c0.2-0.069 0.339-0.263 0.376-0.46c0.016-0.082 0.01-0.145 0.039-0.221 c0.039-0.103 0.111-0.16 0.09-0.293c-0.01-0.062-0.052-0.12-0.064-0.187c-0.022-0.114 0.002-0.224 0-0.337 c-0.003-0.2 0.017-0.379-0.078-0.55c-0.38-0.688-1.236-0.929-1.975-0.789c-0.18 0.034-0.287 0.126-0.442 0.2 c-0.17 0.088-0.139 0.166-0.318 0.224c-0.081 0.026-0.216 0.124-0.215 0.224c0.001 0.1 0 0.1 0 0.2 c-0.021 0.011-0.021-0.005-0.03-0.025"/><path fill="#FFFFFF" d="M8.156-64.001c0.018 0.1 0 0.127-0.026 0.19c-0.053 0.101-0.112 0.063-0.165 0.1 c-0.05 0.063-0.099 0.276-0.079 0.362c-0.169 0.058-0.009 0.227-0.015 0.35c-0.002 0.05-0.041 0.105-0.045 0.2 c-0.01 0.1 0 0.3 0.1 0.37c0.097 0.2 0.3 0.4 0.4 0.544c0.19 0.1 0.4 0.6 0.6 0.6 c0.177 0 0.384-0.104 0.543-0.143c0.18-0.043 0.4 0 0.571-0.053c0.222-0.079 0.127-0.337 0.288-0.45 c0.104-0.074 0.287-0.01 0.406-0.051c0.2-0.069 0.339-0.263 0.376-0.46c0.016-0.082 0.01-0.145 0.039-0.221 c0.039-0.103 0.111-0.16 0.09-0.293c-0.01-0.062-0.052-0.12-0.064-0.187c-0.022-0.114 0.002-0.224 0-0.337 c-0.003-0.2 0.017-0.379-0.078-0.55c-0.38-0.688-1.236-0.929-1.975-0.789c-0.18 0.034-0.287 0.126-0.442 0.2 c-0.17 0.088-0.139 0.166-0.318 0.224c-0.081 0.026-0.216 0.124-0.215 0.224c0.001 0.1 0 0.1 0 0.2 c-0.021 0.011-0.021-0.005-0.03-0.025"/><path fill="#FFFFFF" d="M0.495-64.001c0.018 0.1 0 0.127-0.026 0.19c-0.053 0.101-0.112 0.063-0.165 0.1 c-0.05 0.063-0.099 0.276-0.079 0.362c-0.169 0.058-0.01 0.227-0.015 0.35c-0.002 0.05-0.041 0.105-0.045 0.2 c-0.01 0.1 0 0.3 0.1 0.37c0.097 0.2 0.3 0.4 0.4 0.544c0.19 0.1 0.4 0.6 0.6 0.6 c0.177 0 0.384-0.104 0.543-0.143C2-61.45 2.217-61.397 2.391-61.46c0.222-0.079 0.127-0.337 0.288-0.45 c0.104-0.074 0.287-0.01 0.406-0.051c0.2-0.069 0.339-0.263 0.376-0.46c0.016-0.082 0.01-0.145 0.039-0.221 c0.039-0.103 0.111-0.16 0.09-0.293c-0.01-0.062-0.052-0.12-0.064-0.187c-0.022-0.114 0.002-0.224 0-0.337 c-0.003-0.2 0.017-0.379-0.078-0.55c-0.38-0.688-1.236-0.929-1.975-0.789c-0.18 0.034-0.287 0.126-0.442 0.2 c-0.17 0.088-0.139 0.166-0.318 0.224c-0.081 0.026-0.216 0.124-0.215 0.224c0.001 0.1 0 0.1 0 0.2 c-0.021 0.011-0.021-0.005-0.03-0.025"/></g><g><path fill="#FFFFFF" d="M69.439-56.348c0.018 0.1 0 0.127-0.026 0.19c-0.053 0.101-0.112 0.063-0.165 0.1 c-0.05 0.063-0.099 0.276-0.079 0.362c-0.169 0.058-0.01 0.227-0.015 0.35c-0.002 0.05-0.041 0.105-0.045 0.2 c-0.01 0.1 0 0.3 0.1 0.37c0.097 0.2 0.3 0.4 0.4 0.544c0.19 0.1 0.4 0.6 0.6 0.6 c0.177 0 0.384-0.104 0.543-0.143c0.18-0.043 0.4 0 0.571-0.053c0.222-0.079 0.127-0.337 0.288-0.45 c0.104-0.074 0.287-0.01 0.406-0.051c0.2-0.069 0.339-0.263 0.376-0.46c0.016-0.082 0.01-0.145 0.039-0.221 c0.039-0.103 0.111-0.16 0.09-0.293c-0.01-0.062-0.052-0.12-0.064-0.187c-0.022-0.114 0.002-0.224 0-0.337 c-0.003-0.2 0.017-0.379-0.078-0.55c-0.38-0.688-1.236-0.929-1.975-0.789c-0.18 0.034-0.287 0.126-0.442 0.2 c-0.17 0.088-0.139 0.166-0.318 0.224c-0.081 0.026-0.216 0.124-0.215 0.224c0.001 0.1 0 0.1 0 0.2 c-0.021 0.011-0.021-0.005-0.03-0.025"/><path fill="#FFFFFF" d="M61.778-56.348c0.018 0.1 0 0.127-0.026 0.19c-0.053 0.101-0.112 0.063-0.165 0.1 c-0.05 0.063-0.099 0.276-0.079 0.362c-0.169 0.058-0.009 0.227-0.015 0.35c-0.002 0.05-0.041 0.105-0.045 0.2 c-0.01 0.1 0 0.3 0.1 0.37c0.097 0.2 0.3 0.4 0.4 0.544c0.19 0.1 0.4 0.6 0.6 0.6 c0.177 0 0.384-0.104 0.543-0.143c0.18-0.043 0.4 0 0.571-0.053c0.222-0.079 0.127-0.337 0.288-0.45 c0.104-0.074 0.287-0.01 0.406-0.051c0.2-0.069 0.339-0.263 0.376-0.46c0.016-0.082 0.01-0.145 0.039-0.221 c0.039-0.103 0.111-0.16 0.09-0.293c-0.01-0.062-0.052-0.12-0.064-0.187c-0.022-0.114 0.002-0.224 0-0.337 c-0.003-0.2 0.017-0.379-0.078-0.55c-0.38-0.688-1.236-0.929-1.975-0.789c-0.18 0.034-0.287 0.126-0.442 0.2 c-0.17 0.088-0.139 0.166-0.318 0.224c-0.081 0.026-0.216 0.124-0.215 0.224c0.001 0.1 0 0.1 0 0.2 c-0.021 0.011-0.021-0.005-0.03-0.025"/><path fill="#FFFFFF" d="M54.118-56.348c0.018 0.1 0 0.127-0.026 0.19c-0.053 0.101-0.112 0.063-0.165 0.1 c-0.05 0.063-0.099 0.276-0.079 0.362c-0.169 0.058-0.009 0.227-0.015 0.35c-0.002 0.05-0.041 0.105-0.045 0.2 c-0.01 0.1 0 0.3 0.1 0.37c0.097 0.2 0.3 0.4 0.4 0.544c0.19 0.1 0.4 0.6 0.6 0.6 c0.177 0 0.384-0.104 0.543-0.143c0.18-0.043 0.4 0 0.571-0.053c0.222-0.079 0.127-0.337 0.288-0.45 c0.104-0.074 0.287-0.01 0.406-0.051c0.2-0.069 0.339-0.263 0.376-0.46c0.016-0.082 0.01-0.145 0.039-0.221 c0.039-0.103 0.111-0.16 0.09-0.293c-0.01-0.062-0.052-0.12-0.064-0.187c-0.022-0.114 0.002-0.224 0-0.337 c-0.003-0.2 0.017-0.379-0.078-0.55c-0.38-0.688-1.236-0.929-1.975-0.789c-0.18 0.034-0.287 0.126-0.442 0.2 c-0.17 0.088-0.139 0.166-0.318 0.224c-0.081 0.026-0.216 0.124-0.215 0.224c0.001 0.1 0 0.1 0 0.2 c-0.021 0.011-0.021-0.005-0.03-0.025"/><path fill="#FFFFFF" d="M46.458-56.348c0.018 0.1 0 0.127-0.026 0.19c-0.053 0.101-0.112 0.063-0.165 0.1 c-0.05 0.063-0.099 0.276-0.079 0.362c-0.169 0.058-0.009 0.227-0.015 0.35c-0.002 0.05-0.041 0.105-0.045 0.2 c-0.01 0.1 0 0.3 0.1 0.37c0.097 0.2 0.3 0.4 0.4 0.544c0.19 0.1 0.4 0.6 0.6 0.6 c0.177 0 0.384-0.104 0.543-0.143c0.18-0.043 0.4 0 0.571-0.053c0.222-0.079 0.127-0.337 0.288-0.45 c0.104-0.074 0.287-0.01 0.406-0.051c0.2-0.069 0.339-0.263 0.376-0.46c0.016-0.082 0.01-0.145 0.039-0.221 c0.039-0.103 0.111-0.16 0.09-0.293c-0.01-0.062-0.052-0.12-0.064-0.187c-0.022-0.114 0.002-0.224 0-0.337 c-0.003-0.2 0.017-0.379-0.078-0.55c-0.38-0.688-1.236-0.929-1.975-0.789c-0.18 0.034-0.287 0.126-0.442 0.2 c-0.17 0.088-0.139 0.166-0.318 0.224c-0.081 0.026-0.216 0.124-0.215 0.224c0.001 0.1 0 0.1 0 0.2 c-0.021 0.011-0.021-0.005-0.03-0.025"/><path fill="#FFFFFF" d="M38.797-56.348c0.018 0.1 0 0.127-0.026 0.19c-0.053 0.101-0.112 0.063-0.165 0.1 c-0.05 0.063-0.099 0.276-0.079 0.362c-0.169 0.058-0.009 0.227-0.015 0.35c-0.002 0.05-0.041 0.105-0.045 0.2 c-0.01 0.1 0 0.3 0.1 0.37c0.097 0.2 0.3 0.4 0.4 0.544c0.19 0.1 0.4 0.6 0.6 0.6 c0.177 0 0.384-0.104 0.543-0.143c0.18-0.043 0.4 0 0.571-0.053c0.222-0.079 0.127-0.337 0.288-0.45 c0.104-0.074 0.287-0.01 0.406-0.051c0.2-0.069 0.339-0.263 0.376-0.46c0.016-0.082 0.01-0.145 0.039-0.221 c0.039-0.103 0.111-0.16 0.09-0.293c-0.01-0.062-0.052-0.12-0.064-0.187c-0.022-0.114 0.002-0.224 0-0.337 c-0.003-0.2 0.017-0.379-0.078-0.55c-0.38-0.688-1.236-0.929-1.975-0.789c-0.18 0.034-0.287 0.126-0.442 0.2 c-0.17 0.088-0.139 0.166-0.318 0.224c-0.081 0.026-0.216 0.124-0.215 0.224c0.001 0.1 0 0.1 0 0.2 c-0.021 0.011-0.021-0.005-0.03-0.025"/><path fill="#FFFFFF" d="M31.137-56.348c0.018 0.1 0 0.127-0.026 0.19c-0.053 0.101-0.112 0.063-0.165 0.1 c-0.05 0.063-0.099 0.276-0.079 0.362c-0.169 0.058-0.009 0.227-0.015 0.35c-0.002 0.05-0.041 0.105-0.045 0.2 c-0.01 0.1 0 0.3 0.1 0.37c0.097 0.2 0.3 0.4 0.4 0.544c0.19 0.1 0.4 0.6 0.6 0.6 c0.177 0 0.384-0.104 0.543-0.143c0.18-0.043 0.4 0 0.571-0.053c0.222-0.079 0.127-0.337 0.288-0.45 c0.104-0.074 0.287-0.01 0.406-0.051c0.2-0.069 0.339-0.263 0.376-0.46c0.016-0.082 0.01-0.145 0.039-0.221 c0.039-0.103 0.111-0.16 0.09-0.293c-0.01-0.062-0.052-0.12-0.064-0.187c-0.022-0.114 0.002-0.224 0-0.337 c-0.003-0.2 0.017-0.379-0.078-0.55c-0.38-0.688-1.236-0.929-1.975-0.789c-0.18 0.034-0.287 0.126-0.442 0.2 c-0.17 0.088-0.139 0.166-0.318 0.224c-0.081 0.026-0.216 0.124-0.215 0.224c0.001 0.1 0 0.1 0 0.2 c-0.021 0.011-0.021-0.005-0.03-0.025"/><path fill="#FFFFFF" d="M23.477-56.348c0.018 0.1 0 0.127-0.026 0.19c-0.053 0.101-0.112 0.063-0.165 0.1 c-0.05 0.063-0.099 0.276-0.079 0.362c-0.169 0.058-0.009 0.227-0.015 0.35c-0.002 0.05-0.041 0.105-0.045 0.2 c-0.01 0.1 0 0.3 0.1 0.37c0.097 0.2 0.3 0.4 0.4 0.544c0.19 0.1 0.4 0.6 0.6 0.6 c0.177 0 0.384-0.104 0.543-0.143c0.18-0.043 0.4 0 0.571-0.053c0.222-0.079 0.127-0.337 0.288-0.45 c0.104-0.074 0.287-0.01 0.406-0.051c0.2-0.069 0.339-0.263 0.376-0.46c0.016-0.082 0.01-0.145 0.039-0.221 c0.039-0.103 0.111-0.16 0.09-0.293c-0.01-0.062-0.052-0.12-0.064-0.187c-0.022-0.114 0.002-0.224 0-0.337 c-0.003-0.2 0.017-0.379-0.078-0.55c-0.38-0.688-1.236-0.929-1.975-0.789c-0.18 0.034-0.287 0.126-0.442 0.2 c-0.17 0.088-0.139 0.166-0.318 0.224c-0.081 0.026-0.216 0.124-0.215 0.224c0.001 0.1 0 0.1 0 0.2 c-0.021 0.011-0.021-0.005-0.03-0.025"/><path fill="#FFFFFF" d="M15.816-56.348c0.018 0.1 0 0.127-0.026 0.19c-0.053 0.101-0.112 0.063-0.165 0.1 c-0.05 0.063-0.099 0.276-0.079 0.362c-0.169 0.058-0.009 0.227-0.015 0.35c-0.002 0.05-0.041 0.105-0.045 0.2 c-0.01 0.1 0 0.3 0.1 0.37c0.097 0.2 0.3 0.4 0.4 0.544c0.19 0.1 0.4 0.6 0.6 0.6 c0.177 0 0.384-0.104 0.543-0.143c0.18-0.043 0.4 0 0.571-0.053c0.222-0.079 0.127-0.337 0.288-0.45 c0.104-0.074 0.287-0.01 0.406-0.051c0.2-0.069 0.339-0.263 0.376-0.46c0.016-0.082 0.01-0.145 0.039-0.221 c0.039-0.103 0.111-0.16 0.09-0.293c-0.01-0.062-0.052-0.12-0.064-0.187c-0.022-0.114 0.002-0.224 0-0.337 c-0.003-0.2 0.017-0.379-0.078-0.55c-0.38-0.688-1.236-0.929-1.975-0.789c-0.18 0.034-0.287 0.126-0.442 0.2 c-0.17 0.088-0.139 0.166-0.318 0.224c-0.081 0.026-0.216 0.124-0.215 0.224c0.001 0.1 0 0.1 0 0.2 c-0.021 0.011-0.021-0.005-0.03-0.025"/><path fill="#FFFFFF" d="M8.156-56.348c0.018 0.1 0 0.127-0.026 0.19c-0.053 0.101-0.112 0.063-0.165 0.1 c-0.05 0.063-0.099 0.276-0.079 0.362c-0.169 0.058-0.009 0.227-0.015 0.35c-0.002 0.05-0.041 0.105-0.045 0.2 c-0.01 0.1 0 0.3 0.1 0.37c0.097 0.2 0.3 0.4 0.4 0.544c0.19 0.1 0.4 0.6 0.6 0.6 c0.177 0 0.384-0.104 0.543-0.143c0.18-0.043 0.4 0 0.571-0.053c0.222-0.079 0.127-0.337 0.288-0.45 c0.104-0.074 0.287-0.01 0.406-0.051c0.2-0.069 0.339-0.263 0.376-0.46c0.016-0.082 0.01-0.145 0.039-0.221 c0.039-0.103 0.111-0.16 0.09-0.293c-0.01-0.062-0.052-0.12-0.064-0.187c-0.022-0.114 0.002-0.224 0-0.337 c-0.003-0.2 0.017-0.379-0.078-0.55c-0.38-0.688-1.236-0.929-1.975-0.789c-0.18 0.034-0.287 0.126-0.442 0.2 c-0.17 0.088-0.139 0.166-0.318 0.224c-0.081 0.026-0.216 0.124-0.215 0.224c0.001 0.1 0 0.1 0 0.2 c-0.021 0.011-0.021-0.005-0.03-0.025"/><path fill="#FFFFFF" d="M0.495-56.348c0.018 0.1 0 0.127-0.026 0.19c-0.053 0.101-0.112 0.063-0.165 0.1 c-0.05 0.063-0.099 0.276-0.079 0.362c-0.169 0.058-0.01 0.227-0.015 0.35c-0.002 0.05-0.041 0.105-0.045 0.2 c-0.01 0.1 0 0.3 0.1 0.37c0.097 0.2 0.3 0.4 0.4 0.544c0.19 0.1 0.4 0.6 0.6 0.6 c0.177 0 0.384-0.104 0.543-0.143c0.18-0.043 0.4 0 0.571-0.053c0.222-0.079 0.127-0.337 0.288-0.45 c0.104-0.074 0.287-0.01 0.406-0.051c0.2-0.069 0.339-0.263 0.376-0.46c0.016-0.082 0.01-0.145 0.039-0.221 c0.039-0.103 0.111-0.16 0.09-0.293c-0.01-0.062-0.052-0.12-0.064-0.187c-0.022-0.114 0.002-0.224 0-0.337 c-0.003-0.2 0.017-0.379-0.078-0.55c-0.38-0.688-1.236-0.929-1.975-0.789c-0.18 0.034-0.287 0.126-0.442 0.2 c-0.17 0.088-0.139 0.166-0.318 0.224c-0.081 0.026-0.216 0.124-0.215 0.224C0.5-56.374 0.503-56.438 0.51-56.32 c-0.021 0.011-0.021-0.005-0.03-0.025"/></g><g><path fill="#FFFFFF" d="M69.439-48.695c0.018 0.1 0 0.127-0.026 0.19c-0.053 0.101-0.112 0.063-0.165 0.1 c-0.05 0.063-0.099 0.276-0.079 0.362c-0.169 0.058-0.01 0.227-0.015 0.35c-0.002 0.05-0.041 0.105-0.045 0.2 c-0.01 0.1 0 0.3 0.1 0.37c0.097 0.2 0.3 0.4 0.4 0.544c0.19 0.1 0.4 0.6 0.6 0.6 c0.177 0 0.384-0.104 0.543-0.143c0.18-0.043 0.4 0 0.571-0.053c0.222-0.079 0.127-0.337 0.288-0.45 c0.104-0.074 0.287-0.01 0.406-0.051c0.2-0.069 0.339-0.263 0.376-0.46c0.016-0.082 0.01-0.145 0.039-0.221 c0.039-0.103 0.111-0.16 0.09-0.293c-0.01-0.062-0.052-0.12-0.064-0.187c-0.022-0.114 0.002-0.224 0-0.337 c-0.003-0.2 0.017-0.379-0.078-0.55c-0.38-0.688-1.236-0.929-1.975-0.789c-0.18 0.034-0.287 0.126-0.442 0.2 c-0.17 0.088-0.139 0.166-0.318 0.224c-0.081 0.026-0.216 0.124-0.215 0.224c0.001 0.1 0 0.1 0 0.2 c-0.021 0.011-0.021-0.005-0.03-0.025"/><path fill="#FFFFFF" d="M61.778-48.695c0.018 0.1 0 0.127-0.026 0.19c-0.053 0.101-0.112 0.063-0.165 0.1 c-0.05 0.063-0.099 0.276-0.079 0.362c-0.169 0.058-0.009 0.227-0.015 0.35c-0.002 0.05-0.041 0.105-0.045 0.2 c-0.01 0.1 0 0.3 0.1 0.37c0.097 0.2 0.3 0.4 0.4 0.544c0.19 0.1 0.4 0.6 0.6 0.6 c0.177 0 0.384-0.104 0.543-0.143c0.18-0.043 0.4 0 0.571-0.053c0.222-0.079 0.127-0.337 0.288-0.45 c0.104-0.074 0.287-0.01 0.406-0.051c0.2-0.069 0.339-0.263 0.376-0.46c0.016-0.082 0.01-0.145 0.039-0.221 c0.039-0.103 0.111-0.16 0.09-0.293c-0.01-0.062-0.052-0.12-0.064-0.187c-0.022-0.114 0.002-0.224 0-0.337 c-0.003-0.2 0.017-0.379-0.078-0.55c-0.38-0.688-1.236-0.929-1.975-0.789c-0.18 0.034-0.287 0.126-0.442 0.2 c-0.17 0.088-0.139 0.166-0.318 0.224c-0.081 0.026-0.216 0.124-0.215 0.224c0.001 0.1 0 0.1 0 0.2 c-0.021 0.011-0.021-0.005-0.03-0.025"/><path fill="#FFFFFF" d="M54.118-48.695c0.018 0.1 0 0.127-0.026 0.19c-0.053 0.101-0.112 0.063-0.165 0.1 c-0.05 0.063-0.099 0.276-0.079 0.362c-0.169 0.058-0.009 0.227-0.015 0.35c-0.002 0.05-0.041 0.105-0.045 0.2 c-0.01 0.1 0 0.3 0.1 0.37c0.097 0.2 0.3 0.4 0.4 0.544c0.19 0.1 0.4 0.6 0.6 0.6 c0.177 0 0.384-0.104 0.543-0.143c0.18-0.043 0.4 0 0.571-0.053c0.222-0.079 0.127-0.337 0.288-0.45 c0.104-0.074 0.287-0.01 0.406-0.051c0.2-0.069 0.339-0.263 0.376-0.46c0.016-0.082 0.01-0.145 0.039-0.221 c0.039-0.103 0.111-0.16 0.09-0.293c-0.01-0.062-0.052-0.12-0.064-0.187c-0.022-0.114 0.002-0.224 0-0.337 c-0.003-0.2 0.017-0.379-0.078-0.55c-0.38-0.688-1.236-0.929-1.975-0.789c-0.18 0.034-0.287 0.126-0.442 0.2 c-0.17 0.088-0.139 0.166-0.318 0.224c-0.081 0.026-0.216 0.124-0.215 0.224c0.001 0.1 0 0.1 0 0.2 c-0.021 0.011-0.021-0.005-0.03-0.025"/><path fill="#FFFFFF" d="M46.458-48.695c0.018 0.1 0 0.127-0.026 0.19c-0.053 0.101-0.112 0.063-0.165 0.1 c-0.05 0.063-0.099 0.276-0.079 0.362c-0.169 0.058-0.009 0.227-0.015 0.35c-0.002 0.05-0.041 0.105-0.045 0.2 c-0.01 0.1 0 0.3 0.1 0.37c0.097 0.2 0.3 0.4 0.4 0.544c0.19 0.1 0.4 0.6 0.6 0.6 c0.177 0 0.384-0.104 0.543-0.143c0.18-0.043 0.4 0 0.571-0.053c0.222-0.079 0.127-0.337 0.288-0.45 c0.104-0.074 0.287-0.01 0.406-0.051c0.2-0.069 0.339-0.263 0.376-0.46c0.016-0.082 0.01-0.145 0.039-0.221 c0.039-0.103 0.111-0.16 0.09-0.293c-0.01-0.062-0.052-0.12-0.064-0.187c-0.022-0.114 0.002-0.224 0-0.337 c-0.003-0.2 0.017-0.379-0.078-0.55c-0.38-0.688-1.236-0.929-1.975-0.789c-0.18 0.034-0.287 0.126-0.442 0.2 c-0.17 0.088-0.139 0.166-0.318 0.224c-0.081 0.026-0.216 0.124-0.215 0.224c0.001 0.1 0 0.1 0 0.2 c-0.021 0.011-0.021-0.005-0.03-0.025"/><path fill="#FFFFFF" d="M38.797-48.695c0.018 0.1 0 0.127-0.026 0.19c-0.053 0.101-0.112 0.063-0.165 0.1 c-0.05 0.063-0.099 0.276-0.079 0.362c-0.169 0.058-0.009 0.227-0.015 0.35c-0.002 0.05-0.041 0.105-0.045 0.2 c-0.01 0.1 0 0.3 0.1 0.37c0.097 0.2 0.3 0.4 0.4 0.544c0.19 0.1 0.4 0.6 0.6 0.6 c0.177 0 0.384-0.104 0.543-0.143c0.18-0.043 0.4 0 0.571-0.053c0.222-0.079 0.127-0.337 0.288-0.45 c0.104-0.074 0.287-0.01 0.406-0.051c0.2-0.069 0.339-0.263 0.376-0.46c0.016-0.082 0.01-0.145 0.039-0.221 c0.039-0.103 0.111-0.16 0.09-0.293c-0.01-0.062-0.052-0.12-0.064-0.187c-0.022-0.114 0.002-0.224 0-0.337 c-0.003-0.2 0.017-0.379-0.078-0.55c-0.38-0.688-1.236-0.929-1.975-0.789c-0.18 0.034-0.287 0.126-0.442 0.2 c-0.17 0.088-0.139 0.166-0.318 0.224c-0.081 0.026-0.216 0.124-0.215 0.224c0.001 0.1 0 0.1 0 0.2 c-0.021 0.011-0.021-0.005-0.03-0.025"/><path fill="#FFFFFF" d="M31.137-48.695c0.018 0.1 0 0.127-0.026 0.19c-0.053 0.101-0.112 0.063-0.165 0.1 c-0.05 0.063-0.099 0.276-0.079 0.362c-0.169 0.058-0.009 0.227-0.015 0.35c-0.002 0.05-0.041 0.105-0.045 0.2 c-0.01 0.1 0 0.3 0.1 0.37c0.097 0.2 0.3 0.4 0.4 0.544c0.19 0.1 0.4 0.6 0.6 0.6 c0.177 0 0.384-0.104 0.543-0.143c0.18-0.043 0.4 0 0.571-0.053c0.222-0.079 0.127-0.337 0.288-0.45 c0.104-0.074 0.287-0.01 0.406-0.051c0.2-0.069 0.339-0.263 0.376-0.46c0.016-0.082 0.01-0.145 0.039-0.221 c0.039-0.103 0.111-0.16 0.09-0.293c-0.01-0.062-0.052-0.12-0.064-0.187c-0.022-0.114 0.002-0.224 0-0.337 c-0.003-0.2 0.017-0.379-0.078-0.55c-0.38-0.688-1.236-0.929-1.975-0.789c-0.18 0.034-0.287 0.126-0.442 0.2 c-0.17 0.088-0.139 0.166-0.318 0.224c-0.081 0.026-0.216 0.124-0.215 0.224c0.001 0.1 0 0.1 0 0.2 c-0.021 0.011-0.021-0.005-0.03-0.025"/><path fill="#FFFFFF" d="M23.477-48.695c0.018 0.1 0 0.127-0.026 0.19c-0.053 0.101-0.112 0.063-0.165 0.1 c-0.05 0.063-0.099 0.276-0.079 0.362c-0.169 0.058-0.009 0.227-0.015 0.35c-0.002 0.05-0.041 0.105-0.045 0.2 c-0.01 0.1 0 0.3 0.1 0.37c0.097 0.2 0.3 0.4 0.4 0.544c0.19 0.1 0.4 0.6 0.6 0.6 c0.177 0 0.384-0.104 0.543-0.143c0.18-0.043 0.4 0 0.571-0.053c0.222-0.079 0.127-0.337 0.288-0.45 c0.104-0.074 0.287-0.01 0.406-0.051c0.2-0.069 0.339-0.263 0.376-0.46c0.016-0.082 0.01-0.145 0.039-0.221 c0.039-0.103 0.111-0.16 0.09-0.293c-0.01-0.062-0.052-0.12-0.064-0.187c-0.022-0.114 0.002-0.224 0-0.337 c-0.003-0.2 0.017-0.379-0.078-0.55c-0.38-0.688-1.236-0.929-1.975-0.789c-0.18 0.034-0.287 0.126-0.442 0.2 c-0.17 0.088-0.139 0.166-0.318 0.224c-0.081 0.026-0.216 0.124-0.215 0.224c0.001 0.1 0 0.1 0 0.2 c-0.021 0.011-0.021-0.005-0.03-0.025"/><path fill="#FFFFFF" d="M15.816-48.695c0.018 0.1 0 0.127-0.026 0.19c-0.053 0.101-0.112 0.063-0.165 0.1 c-0.05 0.063-0.099 0.276-0.079 0.362c-0.169 0.058-0.009 0.227-0.015 0.35c-0.002 0.05-0.041 0.105-0.045 0.2 c-0.01 0.1 0 0.3 0.1 0.37c0.097 0.2 0.3 0.4 0.4 0.544c0.19 0.1 0.4 0.6 0.6 0.6 c0.177 0 0.384-0.104 0.543-0.143c0.18-0.043 0.4 0 0.571-0.053c0.222-0.079 0.127-0.337 0.288-0.45 c0.104-0.074 0.287-0.01 0.406-0.051c0.2-0.069 0.339-0.263 0.376-0.46c0.016-0.082 0.01-0.145 0.039-0.221 c0.039-0.103 0.111-0.16 0.09-0.293c-0.01-0.062-0.052-0.12-0.064-0.187c-0.022-0.114 0.002-0.224 0-0.337 c-0.003-0.2 0.017-0.379-0.078-0.55c-0.38-0.688-1.236-0.929-1.975-0.789c-0.18 0.034-0.287 0.126-0.442 0.2 c-0.17 0.088-0.139 0.166-0.318 0.224c-0.081 0.026-0.216 0.124-0.215 0.224c0.001 0.1 0 0.1 0 0.2 c-0.021 0.011-0.021-0.005-0.03-0.025"/><path fill="#FFFFFF" d="M8.156-48.695c0.018 0.1 0 0.127-0.026 0.19c-0.053 0.101-0.112 0.063-0.165 0.1 c-0.05 0.063-0.099 0.276-0.079 0.362c-0.169 0.058-0.009 0.227-0.015 0.35c-0.002 0.05-0.041 0.105-0.045 0.2 c-0.01 0.1 0 0.3 0.1 0.37c0.097 0.2 0.3 0.4 0.4 0.544c0.19 0.1 0.4 0.6 0.6 0.6 c0.177 0 0.384-0.104 0.543-0.143c0.18-0.043 0.4 0 0.571-0.053c0.222-0.079 0.127-0.337 0.288-0.45 c0.104-0.074 0.287-0.01 0.406-0.051c0.2-0.069 0.339-0.263 0.376-0.46c0.016-0.082 0.01-0.145 0.039-0.221 c0.039-0.103 0.111-0.16 0.09-0.293c-0.01-0.062-0.052-0.12-0.064-0.187c-0.022-0.114 0.002-0.224 0-0.337 c-0.003-0.2 0.017-0.379-0.078-0.55c-0.38-0.688-1.236-0.929-1.975-0.789c-0.18 0.034-0.287 0.126-0.442 0.2 c-0.17 0.088-0.139 0.166-0.318 0.224c-0.081 0.026-0.216 0.124-0.215 0.224c0.001 0.1 0 0.1 0 0.2 c-0.021 0.011-0.021-0.005-0.03-0.025"/><path fill="#FFFFFF" d="M0.495-48.695c0.018 0.1 0 0.127-0.026 0.19c-0.053 0.101-0.112 0.063-0.165 0.1 c-0.05 0.063-0.099 0.276-0.079 0.362c-0.169 0.058-0.01 0.227-0.015 0.35c-0.002 0.05-0.041 0.105-0.045 0.2 c-0.01 0.1 0 0.3 0.1 0.37c0.097 0.2 0.3 0.4 0.4 0.544c0.19 0.1 0.4 0.6 0.6 0.6 c0.177 0 0.384-0.104 0.543-0.143c0.18-0.043 0.4 0 0.571-0.053c0.222-0.079 0.127-0.337 0.288-0.45 c0.104-0.074 0.287-0.01 0.406-0.051c0.2-0.069 0.339-0.263 0.376-0.46c0.016-0.082 0.01-0.145 0.039-0.221 c0.039-0.103 0.111-0.16 0.09-0.293c-0.01-0.062-0.052-0.12-0.064-0.187c-0.022-0.114 0.002-0.224 0-0.337 c-0.003-0.2 0.017-0.379-0.078-0.55c-0.38-0.688-1.236-0.929-1.975-0.789c-0.18 0.034-0.287 0.126-0.442 0.2 c-0.17 0.088-0.139 0.166-0.318 0.224c-0.081 0.026-0.216 0.124-0.215 0.224c0.001 0.1 0 0.1 0 0.2 c-0.021 0.011-0.021-0.005-0.03-0.025"/></g><g><path fill="#FFFFFF" d="M69.439-41.042c0.018 0.1 0 0.127-0.026 0.19c-0.053 0.101-0.112 0.063-0.165 0.1 c-0.05 0.063-0.099 0.276-0.079 0.362c-0.169 0.058-0.01 0.227-0.015 0.35c-0.002 0.05-0.041 0.105-0.045 0.2 c-0.01 0.1 0 0.3 0.1 0.37c0.097 0.2 0.3 0.4 0.4 0.544c0.19 0.1 0.4 0.6 0.6 0.6 c0.177 0 0.384-0.104 0.543-0.143c0.18-0.043 0.4 0 0.571-0.053c0.222-0.079 0.127-0.337 0.288-0.45 c0.104-0.074 0.287-0.01 0.406-0.051c0.2-0.069 0.339-0.263 0.376-0.46c0.016-0.082 0.01-0.145 0.039-0.221 c0.039-0.103 0.111-0.16 0.09-0.293c-0.01-0.062-0.052-0.12-0.064-0.187c-0.022-0.114 0.002-0.224 0-0.337 c-0.003-0.2 0.017-0.379-0.078-0.55c-0.38-0.688-1.236-0.929-1.975-0.789c-0.18 0.034-0.287 0.126-0.442 0.2 c-0.17 0.088-0.139 0.166-0.318 0.224c-0.081 0.026-0.216 0.124-0.215 0.224c0.001 0.1 0 0.1 0 0.2 c-0.021 0.011-0.021-0.005-0.03-0.025"/><path fill="#FFFFFF" d="M61.778-41.042c0.018 0.1 0 0.127-0.026 0.19c-0.053 0.101-0.112 0.063-0.165 0.1 c-0.05 0.063-0.099 0.276-0.079 0.362c-0.169 0.058-0.009 0.227-0.015 0.35c-0.002 0.05-0.041 0.105-0.045 0.2 c-0.01 0.1 0 0.3 0.1 0.37c0.097 0.2 0.3 0.4 0.4 0.544c0.19 0.1 0.4 0.6 0.6 0.6 c0.177 0 0.384-0.104 0.543-0.143c0.18-0.043 0.4 0 0.571-0.053c0.222-0.079 0.127-0.337 0.288-0.45 c0.104-0.074 0.287-0.01 0.406-0.051c0.2-0.069 0.339-0.263 0.376-0.46c0.016-0.082 0.01-0.145 0.039-0.221 c0.039-0.103 0.111-0.16 0.09-0.293c-0.01-0.062-0.052-0.12-0.064-0.187c-0.022-0.114 0.002-0.224 0-0.337 c-0.003-0.2 0.017-0.379-0.078-0.55c-0.38-0.688-1.236-0.929-1.975-0.789c-0.18 0.034-0.287 0.126-0.442 0.2 c-0.17 0.088-0.139 0.166-0.318 0.224c-0.081 0.026-0.216 0.124-0.215 0.224c0.001 0.1 0 0.1 0 0.2 c-0.021 0.011-0.021-0.005-0.03-0.025"/><path fill="#FFFFFF" d="M54.118-41.042c0.018 0.1 0 0.127-0.026 0.19c-0.053 0.101-0.112 0.063-0.165 0.1 c-0.05 0.063-0.099 0.276-0.079 0.362c-0.169 0.058-0.009 0.227-0.015 0.35c-0.002 0.05-0.041 0.105-0.045 0.2 c-0.01 0.1 0 0.3 0.1 0.37c0.097 0.2 0.3 0.4 0.4 0.544c0.19 0.1 0.4 0.6 0.6 0.6 c0.177 0 0.384-0.104 0.543-0.143c0.18-0.043 0.4 0 0.571-0.053c0.222-0.079 0.127-0.337 0.288-0.45 c0.104-0.074 0.287-0.01 0.406-0.051c0.2-0.069 0.339-0.263 0.376-0.46c0.016-0.082 0.01-0.145 0.039-0.221 c0.039-0.103 0.111-0.16 0.09-0.293c-0.01-0.062-0.052-0.12-0.064-0.187c-0.022-0.114 0.002-0.224 0-0.337 c-0.003-0.2 0.017-0.379-0.078-0.55c-0.38-0.688-1.236-0.929-1.975-0.789c-0.18 0.034-0.287 0.126-0.442 0.2 c-0.17 0.088-0.139 0.166-0.318 0.224c-0.081 0.026-0.216 0.124-0.215 0.224c0.001 0.1 0 0.1 0 0.2 c-0.021 0.011-0.021-0.005-0.03-0.025"/><path fill="#FFFFFF" d="M46.458-41.042c0.018 0.1 0 0.127-0.026 0.19c-0.053 0.101-0.112 0.063-0.165 0.1 c-0.05 0.063-0.099 0.276-0.079 0.362c-0.169 0.058-0.009 0.227-0.015 0.35c-0.002 0.05-0.041 0.105-0.045 0.2 c-0.01 0.1 0 0.3 0.1 0.37c0.097 0.2 0.3 0.4 0.4 0.544c0.19 0.1 0.4 0.6 0.6 0.6 c0.177 0 0.384-0.104 0.543-0.143c0.18-0.043 0.4 0 0.571-0.053c0.222-0.079 0.127-0.337 0.288-0.45 c0.104-0.074 0.287-0.01 0.406-0.051c0.2-0.069 0.339-0.263 0.376-0.46c0.016-0.082 0.01-0.145 0.039-0.221 c0.039-0.103 0.111-0.16 0.09-0.293c-0.01-0.062-0.052-0.12-0.064-0.187c-0.022-0.114 0.002-0.224 0-0.337 c-0.003-0.2 0.017-0.379-0.078-0.55c-0.38-0.688-1.236-0.929-1.975-0.789c-0.18 0.034-0.287 0.126-0.442 0.2 c-0.17 0.088-0.139 0.166-0.318 0.224c-0.081 0.026-0.216 0.124-0.215 0.224c0.001 0.1 0 0.1 0 0.2 c-0.021 0.011-0.021-0.005-0.03-0.025"/><path fill="#FFFFFF" d="M38.797-41.042c0.018 0.1 0 0.127-0.026 0.19c-0.053 0.101-0.112 0.063-0.165 0.1 c-0.05 0.063-0.099 0.276-0.079 0.362c-0.169 0.058-0.009 0.227-0.015 0.35c-0.002 0.05-0.041 0.105-0.045 0.2 c-0.01 0.1 0 0.3 0.1 0.37c0.097 0.2 0.3 0.4 0.4 0.544c0.19 0.1 0.4 0.6 0.6 0.6 c0.177 0 0.384-0.104 0.543-0.143c0.18-0.043 0.4 0 0.571-0.053c0.222-0.079 0.127-0.337 0.288-0.45 c0.104-0.074 0.287-0.01 0.406-0.051c0.2-0.069 0.339-0.263 0.376-0.46c0.016-0.082 0.01-0.145 0.039-0.221 c0.039-0.103 0.111-0.16 0.09-0.293c-0.01-0.062-0.052-0.12-0.064-0.187c-0.022-0.114 0.002-0.224 0-0.337 c-0.003-0.2 0.017-0.379-0.078-0.55c-0.38-0.688-1.236-0.929-1.975-0.789c-0.18 0.034-0.287 0.126-0.442 0.2 c-0.17 0.088-0.139 0.166-0.318 0.224c-0.081 0.026-0.216 0.124-0.215 0.224c0.001 0.1 0 0.1 0 0.2 c-0.021 0.011-0.021-0.005-0.03-0.025"/><path fill="#FFFFFF" d="M31.137-41.042c0.018 0.1 0 0.127-0.026 0.19c-0.053 0.101-0.112 0.063-0.165 0.1 c-0.05 0.063-0.099 0.276-0.079 0.362c-0.169 0.058-0.009 0.227-0.015 0.35c-0.002 0.05-0.041 0.105-0.045 0.2 c-0.01 0.1 0 0.3 0.1 0.37c0.097 0.2 0.3 0.4 0.4 0.544c0.19 0.1 0.4 0.6 0.6 0.6 c0.177 0 0.384-0.104 0.543-0.143c0.18-0.043 0.4 0 0.571-0.053c0.222-0.079 0.127-0.337 0.288-0.45 c0.104-0.074 0.287-0.01 0.406-0.051c0.2-0.069 0.339-0.263 0.376-0.46c0.016-0.082 0.01-0.145 0.039-0.221 c0.039-0.103 0.111-0.16 0.09-0.293c-0.01-0.062-0.052-0.12-0.064-0.187c-0.022-0.114 0.002-0.224 0-0.337 c-0.003-0.2 0.017-0.379-0.078-0.55c-0.38-0.688-1.236-0.929-1.975-0.789c-0.18 0.034-0.287 0.126-0.442 0.2 c-0.17 0.088-0.139 0.166-0.318 0.224c-0.081 0.026-0.216 0.124-0.215 0.224c0.001 0.1 0 0.1 0 0.2 c-0.021 0.011-0.021-0.005-0.03-0.025"/><path fill="#FFFFFF" d="M23.477-41.042c0.018 0.1 0 0.127-0.026 0.19c-0.053 0.101-0.112 0.063-0.165 0.1 c-0.05 0.063-0.099 0.276-0.079 0.362c-0.169 0.058-0.009 0.227-0.015 0.35c-0.002 0.05-0.041 0.105-0.045 0.2 c-0.01 0.1 0 0.3 0.1 0.37c0.097 0.2 0.3 0.4 0.4 0.544c0.19 0.1 0.4 0.6 0.6 0.6 c0.177 0 0.384-0.104 0.543-0.143c0.18-0.043 0.4 0 0.571-0.053c0.222-0.079 0.127-0.337 0.288-0.45 c0.104-0.074 0.287-0.01 0.406-0.051c0.2-0.069 0.339-0.263 0.376-0.46c0.016-0.082 0.01-0.145 0.039-0.221 c0.039-0.103 0.111-0.16 0.09-0.293c-0.01-0.062-0.052-0.12-0.064-0.187c-0.022-0.114 0.002-0.224 0-0.337 c-0.003-0.2 0.017-0.379-0.078-0.55c-0.38-0.688-1.236-0.929-1.975-0.789c-0.18 0.034-0.287 0.126-0.442 0.2 c-0.17 0.088-0.139 0.166-0.318 0.224c-0.081 0.026-0.216 0.124-0.215 0.224c0.001 0.1 0 0.1 0 0.2 c-0.021 0.011-0.021-0.005-0.03-0.025"/><path fill="#FFFFFF" d="M15.816-41.042c0.018 0.1 0 0.127-0.026 0.19c-0.053 0.101-0.112 0.063-0.165 0.1 c-0.05 0.063-0.099 0.276-0.079 0.362c-0.169 0.058-0.009 0.227-0.015 0.35c-0.002 0.05-0.041 0.105-0.045 0.2 c-0.01 0.1 0 0.3 0.1 0.37c0.097 0.2 0.3 0.4 0.4 0.544c0.19 0.1 0.4 0.6 0.6 0.6 c0.177 0 0.384-0.104 0.543-0.143c0.18-0.043 0.4 0 0.571-0.053c0.222-0.079 0.127-0.337 0.288-0.45 c0.104-0.074 0.287-0.01 0.406-0.051c0.2-0.069 0.339-0.263 0.376-0.46c0.016-0.082 0.01-0.145 0.039-0.221 c0.039-0.103 0.111-0.16 0.09-0.293c-0.01-0.062-0.052-0.12-0.064-0.187c-0.022-0.114 0.002-0.224 0-0.337 c-0.003-0.2 0.017-0.379-0.078-0.55c-0.38-0.688-1.236-0.929-1.975-0.789c-0.18 0.034-0.287 0.126-0.442 0.2 c-0.17 0.088-0.139 0.166-0.318 0.224c-0.081 0.026-0.216 0.124-0.215 0.224c0.001 0.1 0 0.1 0 0.2 c-0.021 0.011-0.021-0.005-0.03-0.025"/><path fill="#FFFFFF" d="M8.156-41.042c0.018 0.1 0 0.127-0.026 0.19c-0.053 0.101-0.112 0.063-0.165 0.1 c-0.05 0.063-0.099 0.276-0.079 0.362c-0.169 0.058-0.009 0.227-0.015 0.35c-0.002 0.05-0.041 0.105-0.045 0.2 c-0.01 0.1 0 0.3 0.1 0.37c0.097 0.2 0.3 0.4 0.4 0.544c0.19 0.1 0.4 0.6 0.6 0.6 c0.177 0 0.384-0.104 0.543-0.143c0.18-0.043 0.4 0 0.571-0.053c0.222-0.079 0.127-0.337 0.288-0.45 c0.104-0.074 0.287-0.01 0.406-0.051c0.2-0.069 0.339-0.263 0.376-0.46c0.016-0.082 0.01-0.145 0.039-0.221 c0.039-0.103 0.111-0.16 0.09-0.293c-0.01-0.062-0.052-0.12-0.064-0.187c-0.022-0.114 0.002-0.224 0-0.337 c-0.003-0.2 0.017-0.379-0.078-0.55c-0.38-0.688-1.236-0.929-1.975-0.789c-0.18 0.034-0.287 0.126-0.442 0.2 c-0.17 0.088-0.139 0.166-0.318 0.224c-0.081 0.026-0.216 0.124-0.215 0.224c0.001 0.1 0 0.1 0 0.2 C8.15-41.004 8.149-41.02 8.14-41.04"/><path fill="#FFFFFF" d="M0.495-41.042c0.018 0.1 0 0.127-0.026 0.19c-0.053 0.101-0.112 0.063-0.165 0.1 c-0.05 0.063-0.099 0.276-0.079 0.362c-0.169 0.058-0.01 0.227-0.015 0.35c-0.002 0.05-0.041 0.105-0.045 0.2 c-0.01 0.1 0 0.3 0.1 0.37c0.097 0.2 0.3 0.4 0.4 0.544c0.19 0.1 0.4 0.6 0.6 0.6 c0.177 0 0.384-0.104 0.543-0.143c0.18-0.043 0.4 0 0.571-0.053c0.222-0.079 0.127-0.337 0.288-0.45 c0.104-0.074 0.287-0.01 0.406-0.051c0.2-0.069 0.339-0.263 0.376-0.46c0.016-0.082 0.01-0.145 0.039-0.221 c0.039-0.103 0.111-0.16 0.09-0.293c-0.01-0.062-0.052-0.12-0.064-0.187c-0.022-0.114 0.002-0.224 0-0.337 c-0.003-0.2 0.017-0.379-0.078-0.55c-0.38-0.688-1.236-0.929-1.975-0.789c-0.18 0.034-0.287 0.126-0.442 0.2 c-0.17 0.088-0.139 0.166-0.318 0.224c-0.081 0.026-0.216 0.124-0.215 0.224c0.001 0.1 0 0.1 0 0.2 c-0.021 0.011-0.021-0.005-0.03-0.025"/></g><g><path fill="#FFFFFF" d="M69.439-33.39c0.018 0.1 0 0.127-0.026 0.19c-0.053 0.101-0.112 0.063-0.165 0.1 c-0.05 0.063-0.099 0.276-0.079 0.362c-0.169 0.058-0.01 0.227-0.015 0.35c-0.002 0.05-0.041 0.105-0.045 0.2 c-0.01 0.1 0 0.3 0.1 0.37c0.097 0.2 0.3 0.4 0.4 0.544c0.19 0.1 0.4 0.6 0.6 0.6 c0.177 0 0.384-0.104 0.543-0.143c0.18-0.043 0.4 0 0.571-0.053c0.222-0.079 0.127-0.337 0.288-0.45 c0.104-0.074 0.287-0.01 0.406-0.051c0.2-0.069 0.339-0.263 0.376-0.46c0.016-0.082 0.01-0.145 0.039-0.221 c0.039-0.103 0.111-0.16 0.09-0.293c-0.01-0.062-0.052-0.12-0.064-0.187c-0.022-0.114 0.002-0.224 0-0.337 c-0.003-0.2 0.017-0.379-0.078-0.55c-0.38-0.688-1.236-0.929-1.975-0.789c-0.18 0.034-0.287 0.126-0.442 0.2 c-0.17 0.088-0.139 0.166-0.318 0.224c-0.081 0.026-0.216 0.124-0.215 0.224c0.001 0.1 0 0.1 0 0.2 c-0.021 0.011-0.021-0.005-0.03-0.025"/><path fill="#FFFFFF" d="M61.778-33.39c0.018 0.1 0 0.127-0.026 0.19c-0.053 0.101-0.112 0.063-0.165 0.1 c-0.05 0.063-0.099 0.276-0.079 0.362c-0.169 0.058-0.009 0.227-0.015 0.35c-0.002 0.05-0.041 0.105-0.045 0.2 c-0.01 0.1 0 0.3 0.1 0.37c0.097 0.2 0.3 0.4 0.4 0.544c0.19 0.1 0.4 0.6 0.6 0.6 c0.177 0 0.384-0.104 0.543-0.143c0.18-0.043 0.4 0 0.571-0.053c0.222-0.079 0.127-0.337 0.288-0.45 c0.104-0.074 0.287-0.01 0.406-0.051c0.2-0.069 0.339-0.263 0.376-0.46c0.016-0.082 0.01-0.145 0.039-0.221 c0.039-0.103 0.111-0.16 0.09-0.293c-0.01-0.062-0.052-0.12-0.064-0.187c-0.022-0.114 0.002-0.224 0-0.337 c-0.003-0.2 0.017-0.379-0.078-0.55c-0.38-0.688-1.236-0.929-1.975-0.789c-0.18 0.034-0.287 0.126-0.442 0.2 c-0.17 0.088-0.139 0.166-0.318 0.224c-0.081 0.026-0.216 0.124-0.215 0.224c0.001 0.1 0 0.1 0 0.2 c-0.021 0.011-0.021-0.005-0.03-0.025"/><path fill="#FFFFFF" d="M54.118-33.39c0.018 0.1 0 0.127-0.026 0.19c-0.053 0.101-0.112 0.063-0.165 0.1 c-0.05 0.063-0.099 0.276-0.079 0.362c-0.169 0.058-0.009 0.227-0.015 0.35c-0.002 0.05-0.041 0.105-0.045 0.2 c-0.01 0.1 0 0.3 0.1 0.37c0.097 0.2 0.3 0.4 0.4 0.544c0.19 0.1 0.4 0.6 0.6 0.6 c0.177 0 0.384-0.104 0.543-0.143c0.18-0.043 0.4 0 0.571-0.053c0.222-0.079 0.127-0.337 0.288-0.45 c0.104-0.074 0.287-0.01 0.406-0.051c0.2-0.069 0.339-0.263 0.376-0.46c0.016-0.082 0.01-0.145 0.039-0.221 c0.039-0.103 0.111-0.16 0.09-0.293c-0.01-0.062-0.052-0.12-0.064-0.187c-0.022-0.114 0.002-0.224 0-0.337 c-0.003-0.2 0.017-0.379-0.078-0.55c-0.38-0.688-1.236-0.929-1.975-0.789c-0.18 0.034-0.287 0.126-0.442 0.2 c-0.17 0.088-0.139 0.166-0.318 0.224c-0.081 0.026-0.216 0.124-0.215 0.224c0.001 0.1 0 0.1 0 0.2 c-0.021 0.011-0.021-0.005-0.03-0.025"/><path fill="#FFFFFF" d="M46.458-33.39c0.018 0.1 0 0.127-0.026 0.19c-0.053 0.101-0.112 0.063-0.165 0.1 c-0.05 0.063-0.099 0.276-0.079 0.362c-0.169 0.058-0.009 0.227-0.015 0.35c-0.002 0.05-0.041 0.105-0.045 0.2 c-0.01 0.1 0 0.3 0.1 0.37c0.097 0.2 0.3 0.4 0.4 0.544c0.19 0.1 0.4 0.6 0.6 0.6 c0.177 0 0.384-0.104 0.543-0.143c0.18-0.043 0.4 0 0.571-0.053c0.222-0.079 0.127-0.337 0.288-0.45 c0.104-0.074 0.287-0.01 0.406-0.051c0.2-0.069 0.339-0.263 0.376-0.46c0.016-0.082 0.01-0.145 0.039-0.221 c0.039-0.103 0.111-0.16 0.09-0.293c-0.01-0.062-0.052-0.12-0.064-0.187c-0.022-0.114 0.002-0.224 0-0.337 c-0.003-0.2 0.017-0.379-0.078-0.55c-0.38-0.688-1.236-0.929-1.975-0.789c-0.18 0.034-0.287 0.126-0.442 0.2 c-0.17 0.088-0.139 0.166-0.318 0.224c-0.081 0.026-0.216 0.124-0.215 0.224c0.001 0.1 0 0.1 0 0.2 c-0.021 0.011-0.021-0.005-0.03-0.025"/><path fill="#FFFFFF" d="M38.797-33.39c0.018 0.1 0 0.127-0.026 0.19c-0.053 0.101-0.112 0.063-0.165 0.1 c-0.05 0.063-0.099 0.276-0.079 0.362c-0.169 0.058-0.009 0.227-0.015 0.35c-0.002 0.05-0.041 0.105-0.045 0.2 c-0.01 0.1 0 0.3 0.1 0.37c0.097 0.2 0.3 0.4 0.4 0.544c0.19 0.1 0.4 0.6 0.6 0.6 c0.177 0 0.384-0.104 0.543-0.143c0.18-0.043 0.4 0 0.571-0.053c0.222-0.079 0.127-0.337 0.288-0.45 c0.104-0.074 0.287-0.01 0.406-0.051c0.2-0.069 0.339-0.263 0.376-0.46c0.016-0.082 0.01-0.145 0.039-0.221 c0.039-0.103 0.111-0.16 0.09-0.293c-0.01-0.062-0.052-0.12-0.064-0.187c-0.022-0.114 0.002-0.224 0-0.337 c-0.003-0.2 0.017-0.379-0.078-0.55c-0.38-0.688-1.236-0.929-1.975-0.789c-0.18 0.034-0.287 0.126-0.442 0.2 c-0.17 0.088-0.139 0.166-0.318 0.224c-0.081 0.026-0.216 0.124-0.215 0.224c0.001 0.1 0 0.1 0 0.2 c-0.021 0.011-0.021-0.005-0.03-0.025"/><path fill="#FFFFFF" d="M31.137-33.39c0.018 0.1 0 0.127-0.026 0.19c-0.053 0.101-0.112 0.063-0.165 0.1 c-0.05 0.063-0.099 0.276-0.079 0.362c-0.169 0.058-0.009 0.227-0.015 0.35c-0.002 0.05-0.041 0.105-0.045 0.2 c-0.01 0.1 0 0.3 0.1 0.37c0.097 0.2 0.3 0.4 0.4 0.544c0.19 0.1 0.4 0.6 0.6 0.6 c0.177 0 0.384-0.104 0.543-0.143c0.18-0.043 0.4 0 0.571-0.053c0.222-0.079 0.127-0.337 0.288-0.45 c0.104-0.074 0.287-0.01 0.406-0.051c0.2-0.069 0.339-0.263 0.376-0.46c0.016-0.082 0.01-0.145 0.039-0.221 c0.039-0.103 0.111-0.16 0.09-0.293c-0.01-0.062-0.052-0.12-0.064-0.187c-0.022-0.114 0.002-0.224 0-0.337 c-0.003-0.2 0.017-0.379-0.078-0.55c-0.38-0.688-1.236-0.929-1.975-0.789c-0.18 0.034-0.287 0.126-0.442 0.2 c-0.17 0.088-0.139 0.166-0.318 0.224c-0.081 0.026-0.216 0.124-0.215 0.224c0.001 0.1 0 0.1 0 0.2 c-0.021 0.011-0.021-0.005-0.03-0.025"/><path fill="#FFFFFF" d="M23.477-33.39c0.018 0.1 0 0.127-0.026 0.19c-0.053 0.101-0.112 0.063-0.165 0.1 c-0.05 0.063-0.099 0.276-0.079 0.362c-0.169 0.058-0.009 0.227-0.015 0.35c-0.002 0.05-0.041 0.105-0.045 0.2 c-0.01 0.1 0 0.3 0.1 0.37c0.097 0.2 0.3 0.4 0.4 0.544c0.19 0.1 0.4 0.6 0.6 0.6 c0.177 0 0.384-0.104 0.543-0.143c0.18-0.043 0.4 0 0.571-0.053c0.222-0.079 0.127-0.337 0.288-0.45 c0.104-0.074 0.287-0.01 0.406-0.051c0.2-0.069 0.339-0.263 0.376-0.46c0.016-0.082 0.01-0.145 0.039-0.221 c0.039-0.103 0.111-0.16 0.09-0.293c-0.01-0.062-0.052-0.12-0.064-0.187c-0.022-0.114 0.002-0.224 0-0.337 c-0.003-0.2 0.017-0.379-0.078-0.55c-0.38-0.688-1.236-0.929-1.975-0.789c-0.18 0.034-0.287 0.126-0.442 0.2 c-0.17 0.088-0.139 0.166-0.318 0.224c-0.081 0.026-0.216 0.124-0.215 0.224c0.001 0.1 0 0.1 0 0.2 c-0.021 0.011-0.021-0.005-0.03-0.025"/><path fill="#FFFFFF" d="M15.816-33.39c0.018 0.1 0 0.127-0.026 0.19c-0.053 0.101-0.112 0.063-0.165 0.1 c-0.05 0.063-0.099 0.276-0.079 0.362c-0.169 0.058-0.009 0.227-0.015 0.35c-0.002 0.05-0.041 0.105-0.045 0.2 c-0.01 0.1 0 0.3 0.1 0.37c0.097 0.2 0.3 0.4 0.4 0.544c0.19 0.1 0.4 0.6 0.6 0.6 c0.177 0 0.384-0.104 0.543-0.143c0.18-0.043 0.4 0 0.571-0.053c0.222-0.079 0.127-0.337 0.288-0.45 c0.104-0.074 0.287-0.01 0.406-0.051c0.2-0.069 0.339-0.263 0.376-0.46c0.016-0.082 0.01-0.145 0.039-0.221 c0.039-0.103 0.111-0.16 0.09-0.293c-0.01-0.062-0.052-0.12-0.064-0.187c-0.022-0.114 0.002-0.224 0-0.337 c-0.003-0.2 0.017-0.379-0.078-0.55c-0.38-0.688-1.236-0.929-1.975-0.789c-0.18 0.034-0.287 0.126-0.442 0.2 c-0.17 0.088-0.139 0.166-0.318 0.224c-0.081 0.026-0.216 0.124-0.215 0.224c0.001 0.1 0 0.1 0 0.2 c-0.021 0.011-0.021-0.005-0.03-0.025"/><path fill="#FFFFFF" d="M8.156-33.39c0.018 0.1 0 0.127-0.026 0.19c-0.053 0.101-0.112 0.063-0.165 0.1 c-0.05 0.063-0.099 0.276-0.079 0.362c-0.169 0.058-0.009 0.227-0.015 0.35c-0.002 0.05-0.041 0.105-0.045 0.2 c-0.01 0.1 0 0.3 0.1 0.37c0.097 0.2 0.3 0.4 0.4 0.544c0.19 0.1 0.4 0.6 0.6 0.6 c0.177 0 0.384-0.104 0.543-0.143c0.18-0.043 0.4 0 0.571-0.053c0.222-0.079 0.127-0.337 0.288-0.45 c0.104-0.074 0.287-0.01 0.406-0.051c0.2-0.069 0.339-0.263 0.376-0.46c0.016-0.082 0.01-0.145 0.039-0.221 c0.039-0.103 0.111-0.16 0.09-0.293c-0.01-0.062-0.052-0.12-0.064-0.187c-0.022-0.114 0.002-0.224 0-0.337 c-0.003-0.2 0.017-0.379-0.078-0.55c-0.38-0.688-1.236-0.929-1.975-0.789c-0.18 0.034-0.287 0.126-0.442 0.2 c-0.17 0.088-0.139 0.166-0.318 0.224c-0.081 0.026-0.216 0.124-0.215 0.224c0.001 0.1 0 0.1 0 0.2 c-0.021 0.011-0.021-0.005-0.03-0.025"/><path fill="#FFFFFF" d="M0.495-33.39c0.018 0.1 0 0.127-0.026 0.19c-0.053 0.101-0.112 0.063-0.165 0.1 c-0.05 0.063-0.099 0.276-0.079 0.362c-0.169 0.058-0.01 0.227-0.015 0.35c-0.002 0.05-0.041 0.105-0.045 0.2 c-0.01 0.1 0 0.3 0.1 0.37c0.097 0.2 0.3 0.4 0.4 0.544c0.19 0.1 0.4 0.6 0.6 0.6 c0.177 0 0.384-0.104 0.543-0.143c0.18-0.043 0.4 0 0.571-0.053c0.222-0.079 0.127-0.337 0.288-0.45 c0.104-0.074 0.287-0.01 0.406-0.051c0.2-0.069 0.339-0.263 0.376-0.46c0.016-0.082 0.01-0.145 0.039-0.221 c0.039-0.103 0.111-0.16 0.09-0.293c-0.01-0.062-0.052-0.12-0.064-0.187c-0.022-0.114 0.002-0.224 0-0.337 c-0.003-0.2 0.017-0.379-0.078-0.55c-0.38-0.688-1.236-0.929-1.975-0.789c-0.18 0.034-0.287 0.126-0.442 0.2 c-0.17 0.088-0.139 0.166-0.318 0.224c-0.081 0.026-0.216 0.124-0.215 0.224C0.5-33.416 0.503-33.48 0.51-33.362 c-0.021 0.011-0.021-0.005-0.03-0.025"/></g><g><path fill="#FFFFFF" d="M69.439-25.736c0.018 0.1 0 0.127-0.026 0.19c-0.053 0.101-0.112 0.063-0.165 0.1 c-0.05 0.063-0.099 0.276-0.079 0.362c-0.169 0.058-0.01 0.227-0.015 0.35c-0.002 0.05-0.041 0.105-0.045 0.2 c-0.01 0.1 0 0.3 0.1 0.37c0.097 0.2 0.3 0.4 0.4 0.544c0.19 0.1 0.4 0.6 0.6 0.6 c0.177 0 0.384-0.104 0.543-0.143c0.18-0.043 0.4 0 0.571-0.053c0.222-0.079 0.127-0.337 0.288-0.45 c0.104-0.074 0.287-0.01 0.406-0.051c0.2-0.069 0.339-0.263 0.376-0.46c0.016-0.082 0.01-0.145 0.039-0.221 c0.039-0.103 0.111-0.16 0.09-0.293c-0.01-0.062-0.052-0.12-0.064-0.187c-0.022-0.114 0.002-0.224 0-0.337 c-0.003-0.2 0.017-0.379-0.078-0.55c-0.38-0.688-1.236-0.929-1.975-0.789c-0.18 0.034-0.287 0.126-0.442 0.2 c-0.17 0.088-0.139 0.166-0.318 0.224c-0.081 0.026-0.216 0.124-0.215 0.224c0.001 0.1 0 0.1 0 0.2 c-0.021 0.011-0.021-0.005-0.03-0.025"/><path fill="#FFFFFF" d="M61.778-25.736c0.018 0.1 0 0.127-0.026 0.19c-0.053 0.101-0.112 0.063-0.165 0.1 c-0.05 0.063-0.099 0.276-0.079 0.362c-0.169 0.058-0.009 0.227-0.015 0.35c-0.002 0.05-0.041 0.105-0.045 0.2 c-0.01 0.1 0 0.3 0.1 0.37c0.097 0.2 0.3 0.4 0.4 0.544c0.19 0.1 0.4 0.6 0.6 0.6 c0.177 0 0.384-0.104 0.543-0.143c0.18-0.043 0.4 0 0.571-0.053c0.222-0.079 0.127-0.337 0.288-0.45 c0.104-0.074 0.287-0.01 0.406-0.051c0.2-0.069 0.339-0.263 0.376-0.46c0.016-0.082 0.01-0.145 0.039-0.221 c0.039-0.103 0.111-0.16 0.09-0.293c-0.01-0.062-0.052-0.12-0.064-0.187c-0.022-0.114 0.002-0.224 0-0.337 c-0.003-0.2 0.017-0.379-0.078-0.55c-0.38-0.688-1.236-0.929-1.975-0.789c-0.18 0.034-0.287 0.126-0.442 0.2 c-0.17 0.088-0.139 0.166-0.318 0.224c-0.081 0.026-0.216 0.124-0.215 0.224c0.001 0.1 0 0.1 0 0.2 c-0.021 0.011-0.021-0.005-0.03-0.025"/><path fill="#FFFFFF" d="M54.118-25.736c0.018 0.1 0 0.127-0.026 0.19c-0.053 0.101-0.112 0.063-0.165 0.1 c-0.05 0.063-0.099 0.276-0.079 0.362c-0.169 0.058-0.009 0.227-0.015 0.35c-0.002 0.05-0.041 0.105-0.045 0.2 c-0.01 0.1 0 0.3 0.1 0.37c0.097 0.2 0.3 0.4 0.4 0.544c0.19 0.1 0.4 0.6 0.6 0.6 c0.177 0 0.384-0.104 0.543-0.143c0.18-0.043 0.4 0 0.571-0.053c0.222-0.079 0.127-0.337 0.288-0.45 c0.104-0.074 0.287-0.01 0.406-0.051c0.2-0.069 0.339-0.263 0.376-0.46c0.016-0.082 0.01-0.145 0.039-0.221 c0.039-0.103 0.111-0.16 0.09-0.293c-0.01-0.062-0.052-0.12-0.064-0.187c-0.022-0.114 0.002-0.224 0-0.337 c-0.003-0.2 0.017-0.379-0.078-0.55c-0.38-0.688-1.236-0.929-1.975-0.789c-0.18 0.034-0.287 0.126-0.442 0.2 c-0.17 0.088-0.139 0.166-0.318 0.224c-0.081 0.026-0.216 0.124-0.215 0.224c0.001 0.1 0 0.1 0 0.2 c-0.021 0.011-0.021-0.005-0.03-0.025"/><path fill="#FFFFFF" d="M46.458-25.736c0.018 0.1 0 0.127-0.026 0.19c-0.053 0.101-0.112 0.063-0.165 0.1 c-0.05 0.063-0.099 0.276-0.079 0.362c-0.169 0.058-0.009 0.227-0.015 0.35c-0.002 0.05-0.041 0.105-0.045 0.2 c-0.01 0.1 0 0.3 0.1 0.37c0.097 0.2 0.3 0.4 0.4 0.544c0.19 0.1 0.4 0.6 0.6 0.6 c0.177 0 0.384-0.104 0.543-0.143c0.18-0.043 0.4 0 0.571-0.053c0.222-0.079 0.127-0.337 0.288-0.45 c0.104-0.074 0.287-0.01 0.406-0.051c0.2-0.069 0.339-0.263 0.376-0.46c0.016-0.082 0.01-0.145 0.039-0.221 c0.039-0.103 0.111-0.16 0.09-0.293c-0.01-0.062-0.052-0.12-0.064-0.187c-0.022-0.114 0.002-0.224 0-0.337 c-0.003-0.2 0.017-0.379-0.078-0.55c-0.38-0.688-1.236-0.929-1.975-0.789c-0.18 0.034-0.287 0.126-0.442 0.2 c-0.17 0.088-0.139 0.166-0.318 0.224c-0.081 0.026-0.216 0.124-0.215 0.224c0.001 0.1 0 0.1 0 0.2 c-0.021 0.011-0.021-0.005-0.03-0.025"/><path fill="#FFFFFF" d="M38.797-25.736c0.018 0.1 0 0.127-0.026 0.19c-0.053 0.101-0.112 0.063-0.165 0.1 c-0.05 0.063-0.099 0.276-0.079 0.362c-0.169 0.058-0.009 0.227-0.015 0.35c-0.002 0.05-0.041 0.105-0.045 0.2 c-0.01 0.1 0 0.3 0.1 0.37c0.097 0.2 0.3 0.4 0.4 0.544c0.19 0.1 0.4 0.6 0.6 0.6 c0.177 0 0.384-0.104 0.543-0.143c0.18-0.043 0.4 0 0.571-0.053c0.222-0.079 0.127-0.337 0.288-0.45 c0.104-0.074 0.287-0.01 0.406-0.051c0.2-0.069 0.339-0.263 0.376-0.46c0.016-0.082 0.01-0.145 0.039-0.221 c0.039-0.103 0.111-0.16 0.09-0.293c-0.01-0.062-0.052-0.12-0.064-0.187c-0.022-0.114 0.002-0.224 0-0.337 c-0.003-0.2 0.017-0.379-0.078-0.55c-0.38-0.688-1.236-0.929-1.975-0.789c-0.18 0.034-0.287 0.126-0.442 0.2 c-0.17 0.088-0.139 0.166-0.318 0.224c-0.081 0.026-0.216 0.124-0.215 0.224c0.001 0.1 0 0.1 0 0.2 c-0.021 0.011-0.021-0.005-0.03-0.025"/><path fill="#FFFFFF" d="M31.137-25.736c0.018 0.1 0 0.127-0.026 0.19c-0.053 0.101-0.112 0.063-0.165 0.1 c-0.05 0.063-0.099 0.276-0.079 0.362c-0.169 0.058-0.009 0.227-0.015 0.35c-0.002 0.05-0.041 0.105-0.045 0.2 c-0.01 0.1 0 0.3 0.1 0.37c0.097 0.2 0.3 0.4 0.4 0.544c0.19 0.1 0.4 0.6 0.6 0.6 c0.177 0 0.384-0.104 0.543-0.143c0.18-0.043 0.4 0 0.571-0.053c0.222-0.079 0.127-0.337 0.288-0.45 c0.104-0.074 0.287-0.01 0.406-0.051c0.2-0.069 0.339-0.263 0.376-0.46c0.016-0.082 0.01-0.145 0.039-0.221 c0.039-0.103 0.111-0.16 0.09-0.293c-0.01-0.062-0.052-0.12-0.064-0.187c-0.022-0.114 0.002-0.224 0-0.337 c-0.003-0.2 0.017-0.379-0.078-0.55c-0.38-0.688-1.236-0.929-1.975-0.789c-0.18 0.034-0.287 0.126-0.442 0.2 c-0.17 0.088-0.139 0.166-0.318 0.224c-0.081 0.026-0.216 0.124-0.215 0.224c0.001 0.1 0 0.1 0 0.2 c-0.021 0.011-0.021-0.005-0.03-0.025"/><path fill="#FFFFFF" d="M23.477-25.736c0.018 0.1 0 0.127-0.026 0.19c-0.053 0.101-0.112 0.063-0.165 0.1 c-0.05 0.063-0.099 0.276-0.079 0.362c-0.169 0.058-0.009 0.227-0.015 0.35c-0.002 0.05-0.041 0.105-0.045 0.2 c-0.01 0.1 0 0.3 0.1 0.37c0.097 0.2 0.3 0.4 0.4 0.544c0.19 0.1 0.4 0.6 0.6 0.6 c0.177 0 0.384-0.104 0.543-0.143c0.18-0.043 0.4 0 0.571-0.053c0.222-0.079 0.127-0.337 0.288-0.45 c0.104-0.074 0.287-0.01 0.406-0.051c0.2-0.069 0.339-0.263 0.376-0.46c0.016-0.082 0.01-0.145 0.039-0.221 c0.039-0.103 0.111-0.16 0.09-0.293c-0.01-0.062-0.052-0.12-0.064-0.187c-0.022-0.114 0.002-0.224 0-0.337 c-0.003-0.2 0.017-0.379-0.078-0.55c-0.38-0.688-1.236-0.929-1.975-0.789c-0.18 0.034-0.287 0.126-0.442 0.2 c-0.17 0.088-0.139 0.166-0.318 0.224c-0.081 0.026-0.216 0.124-0.215 0.224c0.001 0.1 0 0.1 0 0.2 c-0.021 0.011-0.021-0.005-0.03-0.025"/><path fill="#FFFFFF" d="M15.816-25.736c0.018 0.1 0 0.127-0.026 0.19c-0.053 0.101-0.112 0.063-0.165 0.1 c-0.05 0.063-0.099 0.276-0.079 0.362c-0.169 0.058-0.009 0.227-0.015 0.35c-0.002 0.05-0.041 0.105-0.045 0.2 c-0.01 0.1 0 0.3 0.1 0.37c0.097 0.2 0.3 0.4 0.4 0.544c0.19 0.1 0.4 0.6 0.6 0.6 c0.177 0 0.384-0.104 0.543-0.143c0.18-0.043 0.4 0 0.571-0.053c0.222-0.079 0.127-0.337 0.288-0.45 c0.104-0.074 0.287-0.01 0.406-0.051c0.2-0.069 0.339-0.263 0.376-0.46c0.016-0.082 0.01-0.145 0.039-0.221 c0.039-0.103 0.111-0.16 0.09-0.293c-0.01-0.062-0.052-0.12-0.064-0.187c-0.022-0.114 0.002-0.224 0-0.337 c-0.003-0.2 0.017-0.379-0.078-0.55c-0.38-0.688-1.236-0.929-1.975-0.789c-0.18 0.034-0.287 0.126-0.442 0.2 c-0.17 0.088-0.139 0.166-0.318 0.224c-0.081 0.026-0.216 0.124-0.215 0.224c0.001 0.1 0 0.1 0 0.2 c-0.021 0.011-0.021-0.005-0.03-0.025"/><path fill="#FFFFFF" d="M8.156-25.736c0.018 0.1 0 0.127-0.026 0.19c-0.053 0.101-0.112 0.063-0.165 0.1 c-0.05 0.063-0.099 0.276-0.079 0.362c-0.169 0.058-0.009 0.227-0.015 0.35c-0.002 0.05-0.041 0.105-0.045 0.2 c-0.01 0.1 0 0.3 0.1 0.37c0.097 0.2 0.3 0.4 0.4 0.544c0.19 0.1 0.4 0.6 0.6 0.6 c0.177 0 0.384-0.104 0.543-0.143c0.18-0.043 0.4 0 0.571-0.053c0.222-0.079 0.127-0.337 0.288-0.45 c0.104-0.074 0.287-0.01 0.406-0.051c0.2-0.069 0.339-0.263 0.376-0.46c0.016-0.082 0.01-0.145 0.039-0.221 c0.039-0.103 0.111-0.16 0.09-0.293c-0.01-0.062-0.052-0.12-0.064-0.187c-0.022-0.114 0.002-0.224 0-0.337 c-0.003-0.2 0.017-0.379-0.078-0.55c-0.38-0.688-1.236-0.929-1.975-0.789c-0.18 0.034-0.287 0.126-0.442 0.2 c-0.17 0.088-0.139 0.166-0.318 0.224c-0.081 0.026-0.216 0.124-0.215 0.224c0.001 0.1 0 0.1 0 0.2 c-0.021 0.011-0.021-0.005-0.03-0.025"/><path fill="#FFFFFF" d="M0.495-25.736c0.018 0.1 0 0.127-0.026 0.19c-0.053 0.101-0.112 0.063-0.165 0.1 c-0.05 0.063-0.099 0.276-0.079 0.362c-0.169 0.058-0.01 0.227-0.015 0.35c-0.002 0.05-0.041 0.105-0.045 0.2 c-0.01 0.1 0 0.3 0.1 0.37c0.097 0.2 0.3 0.4 0.4 0.544c0.19 0.1 0.4 0.6 0.6 0.6 c0.177 0 0.384-0.104 0.543-0.143c0.18-0.043 0.4 0 0.571-0.053c0.222-0.079 0.127-0.337 0.288-0.45 c0.104-0.074 0.287-0.01 0.406-0.051c0.2-0.069 0.339-0.263 0.376-0.46c0.016-0.082 0.01-0.145 0.039-0.221 c0.039-0.103 0.111-0.16 0.09-0.293c-0.01-0.062-0.052-0.12-0.064-0.187c-0.022-0.114 0.002-0.224 0-0.337 c-0.003-0.2 0.017-0.379-0.078-0.55c-0.38-0.688-1.236-0.929-1.975-0.789c-0.18 0.034-0.287 0.126-0.442 0.2 c-0.17 0.088-0.139 0.166-0.318 0.224c-0.081 0.026-0.216 0.124-0.215 0.224c0.001 0.1 0 0.1 0 0.2 c-0.021 0.011-0.021-0.005-0.03-0.025"/></g><g><path fill="#FFFFFF" d="M69.439-18.084c0.018 0.1 0 0.127-0.026 0.19c-0.053 0.101-0.112 0.063-0.165 0.1 c-0.05 0.063-0.099 0.276-0.079 0.362c-0.169 0.058-0.01 0.227-0.015 0.35c-0.002 0.05-0.041 0.105-0.045 0.2 c-0.01 0.1 0 0.3 0.1 0.37c0.097 0.2 0.3 0.4 0.4 0.544c0.19 0.1 0.4 0.6 0.6 0.6 c0.177 0 0.384-0.104 0.543-0.143c0.18-0.043 0.4 0 0.571-0.053c0.222-0.079 0.127-0.337 0.288-0.45 c0.104-0.074 0.287-0.01 0.406-0.051c0.2-0.069 0.339-0.263 0.376-0.46c0.016-0.082 0.01-0.145 0.039-0.221 c0.039-0.103 0.111-0.16 0.09-0.293c-0.01-0.062-0.052-0.12-0.064-0.187c-0.022-0.114 0.002-0.224 0-0.337 c-0.003-0.2 0.017-0.379-0.078-0.55c-0.38-0.688-1.236-0.929-1.975-0.789c-0.18 0.034-0.287 0.126-0.442 0.2 c-0.17 0.088-0.139 0.166-0.318 0.224c-0.081 0.026-0.216 0.124-0.215 0.224c0.001 0.1 0 0.1 0 0.2 c-0.021 0.011-0.021-0.005-0.03-0.025"/><path fill="#FFFFFF" d="M61.778-18.084c0.018 0.1 0 0.127-0.026 0.19c-0.053 0.101-0.112 0.063-0.165 0.1 c-0.05 0.063-0.099 0.276-0.079 0.362c-0.169 0.058-0.009 0.227-0.015 0.35c-0.002 0.05-0.041 0.105-0.045 0.2 c-0.01 0.1 0 0.3 0.1 0.37c0.097 0.2 0.3 0.4 0.4 0.544c0.19 0.1 0.4 0.6 0.6 0.6 c0.177 0 0.384-0.104 0.543-0.143c0.18-0.043 0.4 0 0.571-0.053c0.222-0.079 0.127-0.337 0.288-0.45 c0.104-0.074 0.287-0.01 0.406-0.051c0.2-0.069 0.339-0.263 0.376-0.46c0.016-0.082 0.01-0.145 0.039-0.221 c0.039-0.103 0.111-0.16 0.09-0.293c-0.01-0.062-0.052-0.12-0.064-0.187c-0.022-0.114 0.002-0.224 0-0.337 c-0.003-0.2 0.017-0.379-0.078-0.55c-0.38-0.688-1.236-0.929-1.975-0.789c-0.18 0.034-0.287 0.126-0.442 0.2 c-0.17 0.088-0.139 0.166-0.318 0.224c-0.081 0.026-0.216 0.124-0.215 0.224c0.001 0.1 0 0.1 0 0.2 c-0.021 0.011-0.021-0.005-0.03-0.025"/><path fill="#FFFFFF" d="M54.118-18.084c0.018 0.1 0 0.127-0.026 0.19c-0.053 0.101-0.112 0.063-0.165 0.1 c-0.05 0.063-0.099 0.276-0.079 0.362c-0.169 0.058-0.009 0.227-0.015 0.35c-0.002 0.05-0.041 0.105-0.045 0.2 c-0.01 0.1 0 0.3 0.1 0.37c0.097 0.2 0.3 0.4 0.4 0.544c0.19 0.1 0.4 0.6 0.6 0.6 c0.177 0 0.384-0.104 0.543-0.143c0.18-0.043 0.4 0 0.571-0.053c0.222-0.079 0.127-0.337 0.288-0.45 c0.104-0.074 0.287-0.01 0.406-0.051c0.2-0.069 0.339-0.263 0.376-0.46c0.016-0.082 0.01-0.145 0.039-0.221 c0.039-0.103 0.111-0.16 0.09-0.293c-0.01-0.062-0.052-0.12-0.064-0.187c-0.022-0.114 0.002-0.224 0-0.337 c-0.003-0.2 0.017-0.379-0.078-0.55c-0.38-0.688-1.236-0.929-1.975-0.789c-0.18 0.034-0.287 0.126-0.442 0.2 c-0.17 0.088-0.139 0.166-0.318 0.224c-0.081 0.026-0.216 0.124-0.215 0.224c0.001 0.1 0 0.1 0 0.2 c-0.021 0.011-0.021-0.005-0.03-0.025"/><path fill="#FFFFFF" d="M46.458-18.084c0.018 0.1 0 0.127-0.026 0.19c-0.053 0.101-0.112 0.063-0.165 0.1 c-0.05 0.063-0.099 0.276-0.079 0.362c-0.169 0.058-0.009 0.227-0.015 0.35c-0.002 0.05-0.041 0.105-0.045 0.2 c-0.01 0.1 0 0.3 0.1 0.37c0.097 0.2 0.3 0.4 0.4 0.544c0.19 0.1 0.4 0.6 0.6 0.6 c0.177 0 0.384-0.104 0.543-0.143c0.18-0.043 0.4 0 0.571-0.053c0.222-0.079 0.127-0.337 0.288-0.45 c0.104-0.074 0.287-0.01 0.406-0.051c0.2-0.069 0.339-0.263 0.376-0.46c0.016-0.082 0.01-0.145 0.039-0.221 c0.039-0.103 0.111-0.16 0.09-0.293c-0.01-0.062-0.052-0.12-0.064-0.187c-0.022-0.114 0.002-0.224 0-0.337 c-0.003-0.2 0.017-0.379-0.078-0.55c-0.38-0.688-1.236-0.929-1.975-0.789c-0.18 0.034-0.287 0.126-0.442 0.2 c-0.17 0.088-0.139 0.166-0.318 0.224c-0.081 0.026-0.216 0.124-0.215 0.224c0.001 0.1 0 0.1 0 0.2 c-0.021 0.011-0.021-0.005-0.03-0.025"/><path fill="#FFFFFF" d="M38.797-18.084c0.018 0.1 0 0.127-0.026 0.19c-0.053 0.101-0.112 0.063-0.165 0.1 c-0.05 0.063-0.099 0.276-0.079 0.362c-0.169 0.058-0.009 0.227-0.015 0.35c-0.002 0.05-0.041 0.105-0.045 0.2 c-0.01 0.1 0 0.3 0.1 0.37c0.097 0.2 0.3 0.4 0.4 0.544c0.19 0.1 0.4 0.6 0.6 0.6 c0.177 0 0.384-0.104 0.543-0.143c0.18-0.043 0.4 0 0.571-0.053c0.222-0.079 0.127-0.337 0.288-0.45 c0.104-0.074 0.287-0.01 0.406-0.051c0.2-0.069 0.339-0.263 0.376-0.46c0.016-0.082 0.01-0.145 0.039-0.221 c0.039-0.103 0.111-0.16 0.09-0.293c-0.01-0.062-0.052-0.12-0.064-0.187c-0.022-0.114 0.002-0.224 0-0.337 c-0.003-0.2 0.017-0.379-0.078-0.55c-0.38-0.688-1.236-0.929-1.975-0.789c-0.18 0.034-0.287 0.126-0.442 0.2 c-0.17 0.088-0.139 0.166-0.318 0.224c-0.081 0.026-0.216 0.124-0.215 0.224c0.001 0.1 0 0.1 0 0.2 c-0.021 0.011-0.021-0.005-0.03-0.025"/><path fill="#FFFFFF" d="M31.137-18.084c0.018 0.1 0 0.127-0.026 0.19c-0.053 0.101-0.112 0.063-0.165 0.1 c-0.05 0.063-0.099 0.276-0.079 0.362c-0.169 0.058-0.009 0.227-0.015 0.35c-0.002 0.05-0.041 0.105-0.045 0.2 c-0.01 0.1 0 0.3 0.1 0.37c0.097 0.2 0.3 0.4 0.4 0.544c0.19 0.1 0.4 0.6 0.6 0.6 c0.177 0 0.384-0.104 0.543-0.143c0.18-0.043 0.4 0 0.571-0.053c0.222-0.079 0.127-0.337 0.288-0.45 c0.104-0.074 0.287-0.01 0.406-0.051c0.2-0.069 0.339-0.263 0.376-0.46c0.016-0.082 0.01-0.145 0.039-0.221 c0.039-0.103 0.111-0.16 0.09-0.293c-0.01-0.062-0.052-0.12-0.064-0.187c-0.022-0.114 0.002-0.224 0-0.337 c-0.003-0.2 0.017-0.379-0.078-0.55c-0.38-0.688-1.236-0.929-1.975-0.789c-0.18 0.034-0.287 0.126-0.442 0.2 c-0.17 0.088-0.139 0.166-0.318 0.224c-0.081 0.026-0.216 0.124-0.215 0.224c0.001 0.1 0 0.1 0 0.2 c-0.021 0.011-0.021-0.005-0.03-0.025"/><path fill="#FFFFFF" d="M23.477-18.084c0.018 0.1 0 0.127-0.026 0.19c-0.053 0.101-0.112 0.063-0.165 0.1 c-0.05 0.063-0.099 0.276-0.079 0.362c-0.169 0.058-0.009 0.227-0.015 0.35c-0.002 0.05-0.041 0.105-0.045 0.2 c-0.01 0.1 0 0.3 0.1 0.37c0.097 0.2 0.3 0.4 0.4 0.544c0.19 0.1 0.4 0.6 0.6 0.6 c0.177 0 0.384-0.104 0.543-0.143c0.18-0.043 0.4 0 0.571-0.053c0.222-0.079 0.127-0.337 0.288-0.45 c0.104-0.074 0.287-0.01 0.406-0.051c0.2-0.069 0.339-0.263 0.376-0.46c0.016-0.082 0.01-0.145 0.039-0.221 c0.039-0.103 0.111-0.16 0.09-0.293c-0.01-0.062-0.052-0.12-0.064-0.187c-0.022-0.114 0.002-0.224 0-0.337 c-0.003-0.2 0.017-0.379-0.078-0.55c-0.38-0.688-1.236-0.929-1.975-0.789c-0.18 0.034-0.287 0.126-0.442 0.2 c-0.17 0.088-0.139 0.166-0.318 0.224c-0.081 0.026-0.216 0.124-0.215 0.224c0.001 0.1 0 0.1 0 0.2 c-0.021 0.011-0.021-0.005-0.03-0.025"/><path fill="#FFFFFF" d="M15.816-18.084c0.018 0.1 0 0.127-0.026 0.19c-0.053 0.101-0.112 0.063-0.165 0.1 c-0.05 0.063-0.099 0.276-0.079 0.362c-0.169 0.058-0.009 0.227-0.015 0.35c-0.002 0.05-0.041 0.105-0.045 0.2 c-0.01 0.1 0 0.3 0.1 0.37c0.097 0.2 0.3 0.4 0.4 0.544c0.19 0.1 0.4 0.6 0.6 0.6 c0.177 0 0.384-0.104 0.543-0.143c0.18-0.043 0.4 0 0.571-0.053c0.222-0.079 0.127-0.337 0.288-0.45 c0.104-0.074 0.287-0.01 0.406-0.051c0.2-0.069 0.339-0.263 0.376-0.46c0.016-0.082 0.01-0.145 0.039-0.221 c0.039-0.103 0.111-0.16 0.09-0.293c-0.01-0.062-0.052-0.12-0.064-0.187c-0.022-0.114 0.002-0.224 0-0.337 c-0.003-0.2 0.017-0.379-0.078-0.55c-0.38-0.688-1.236-0.929-1.975-0.789c-0.18 0.034-0.287 0.126-0.442 0.2 c-0.17 0.088-0.139 0.166-0.318 0.224c-0.081 0.026-0.216 0.124-0.215 0.224c0.001 0.1 0 0.1 0 0.2 c-0.021 0.011-0.021-0.005-0.03-0.025"/><path fill="#FFFFFF" d="M8.156-18.084c0.018 0.1 0 0.127-0.026 0.19c-0.053 0.101-0.112 0.063-0.165 0.1 c-0.05 0.063-0.099 0.276-0.079 0.362c-0.169 0.058-0.009 0.227-0.015 0.35c-0.002 0.05-0.041 0.105-0.045 0.2 c-0.01 0.1 0 0.3 0.1 0.37c0.097 0.2 0.3 0.4 0.4 0.544c0.19 0.1 0.4 0.6 0.6 0.6 c0.177 0 0.384-0.104 0.543-0.143c0.18-0.043 0.4 0 0.571-0.053c0.222-0.079 0.127-0.337 0.288-0.45 c0.104-0.074 0.287-0.01 0.406-0.051c0.2-0.069 0.339-0.263 0.376-0.46c0.016-0.082 0.01-0.145 0.039-0.221 c0.039-0.103 0.111-0.16 0.09-0.293c-0.01-0.062-0.052-0.12-0.064-0.187c-0.022-0.114 0.002-0.224 0-0.337 c-0.003-0.2 0.017-0.379-0.078-0.55c-0.38-0.688-1.236-0.929-1.975-0.789c-0.18 0.034-0.287 0.126-0.442 0.2 c-0.17 0.088-0.139 0.166-0.318 0.224c-0.081 0.026-0.216 0.124-0.215 0.224c0.001 0.1 0 0.1 0 0.2 c-0.021 0.011-0.021-0.005-0.03-0.025"/><path fill="#FFFFFF" d="M0.495-18.084c0.018 0.1 0 0.127-0.026 0.19c-0.053 0.101-0.112 0.063-0.165 0.1 c-0.05 0.063-0.099 0.276-0.079 0.362c-0.169 0.058-0.01 0.227-0.015 0.35c-0.002 0.05-0.041 0.105-0.045 0.2 c-0.01 0.1 0 0.3 0.1 0.37c0.097 0.2 0.3 0.4 0.4 0.544c0.19 0.1 0.4 0.6 0.6 0.6 c0.177 0 0.384-0.104 0.543-0.143c0.18-0.043 0.4 0 0.571-0.053c0.222-0.079 0.127-0.337 0.288-0.45 c0.104-0.074 0.287-0.01 0.406-0.051c0.2-0.069 0.339-0.263 0.376-0.46c0.016-0.082 0.01-0.145 0.039-0.221 c0.039-0.103 0.111-0.16 0.09-0.293c-0.01-0.062-0.052-0.12-0.064-0.187c-0.022-0.114 0.002-0.224 0-0.337 c-0.003-0.2 0.017-0.379-0.078-0.55c-0.38-0.688-1.236-0.929-1.975-0.789c-0.18 0.034-0.287 0.126-0.442 0.2 c-0.17 0.088-0.139 0.166-0.318 0.224c-0.081 0.026-0.216 0.124-0.215 0.224C0.5-18.11 0.503-18.175 0.51-18.057 c-0.021 0.011-0.021-0.005-0.03-0.025"/></g><g><path fill="#FFFFFF" d="M69.439-10.431c0.018 0.1 0 0.127-0.026 0.19c-0.053 0.101-0.112 0.063-0.165 0.1 c-0.05 0.063-0.099 0.276-0.079 0.362C69-9.692 69.159-9.523 69.154-9.4c-0.002 0.05-0.041 0.105-0.045 0.2 c-0.01 0.1 0 0.3 0.1 0.37c0.097 0.2 0.3 0.4 0.4 0.544c0.19 0.1 0.4 0.6 0.6 0.6 c0.177 0 0.384-0.104 0.543-0.143c0.18-0.043 0.4 0 0.571-0.053c0.222-0.079 0.127-0.337 0.288-0.45 c0.104-0.074 0.287-0.01 0.406-0.051c0.2-0.069 0.339-0.263 0.376-0.46c0.016-0.082 0.01-0.145 0.039-0.221 c0.039-0.103 0.111-0.16 0.09-0.293c-0.01-0.062-0.052-0.12-0.064-0.187c-0.022-0.114 0.002-0.224 0-0.337 c-0.003-0.2 0.017-0.379-0.078-0.55c-0.38-0.688-1.236-0.929-1.975-0.789c-0.18 0.034-0.287 0.126-0.442 0.2 c-0.17 0.088-0.139 0.166-0.318 0.224c-0.081 0.026-0.216 0.124-0.215 0.224c0.001 0.1 0 0.1 0 0.2 c-0.021 0.011-0.021-0.005-0.03-0.025"/><path fill="#FFFFFF" d="M61.778-10.431c0.018 0.1 0 0.127-0.026 0.19c-0.053 0.101-0.112 0.063-0.165 0.1 c-0.05 0.063-0.099 0.276-0.079 0.362c-0.169 0.058-0.009 0.227-0.015 0.35c-0.002 0.05-0.041 0.105-0.045 0.2 c-0.01 0.1 0 0.3 0.1 0.37c0.097 0.2 0.3 0.4 0.4 0.544c0.19 0.1 0.4 0.6 0.6 0.6 c0.177 0 0.384-0.104 0.543-0.143c0.18-0.043 0.4 0 0.571-0.053c0.222-0.079 0.127-0.337 0.288-0.45 c0.104-0.074 0.287-0.01 0.406-0.051c0.2-0.069 0.339-0.263 0.376-0.46c0.016-0.082 0.01-0.145 0.039-0.221 c0.039-0.103 0.111-0.16 0.09-0.293c-0.01-0.062-0.052-0.12-0.064-0.187c-0.022-0.114 0.002-0.224 0-0.337 c-0.003-0.2 0.017-0.379-0.078-0.55c-0.38-0.688-1.236-0.929-1.975-0.789c-0.18 0.034-0.287 0.126-0.442 0.2 c-0.17 0.088-0.139 0.166-0.318 0.224c-0.081 0.026-0.216 0.124-0.215 0.224c0.001 0.1 0 0.1 0 0.2 c-0.021 0.011-0.021-0.005-0.03-0.025"/><path fill="#FFFFFF" d="M54.118-10.431c0.018 0.1 0 0.127-0.026 0.19c-0.053 0.101-0.112 0.063-0.165 0.1 c-0.05 0.063-0.099 0.276-0.079 0.362c-0.169 0.058-0.009 0.227-0.015 0.35c-0.002 0.05-0.041 0.105-0.045 0.2 c-0.01 0.1 0 0.3 0.1 0.37c0.097 0.2 0.3 0.4 0.4 0.544c0.19 0.1 0.4 0.6 0.6 0.6 c0.177 0 0.384-0.104 0.543-0.143c0.18-0.043 0.4 0 0.571-0.053c0.222-0.079 0.127-0.337 0.288-0.45 c0.104-0.074 0.287-0.01 0.406-0.051c0.2-0.069 0.339-0.263 0.376-0.46c0.016-0.082 0.01-0.145 0.039-0.221 c0.039-0.103 0.111-0.16 0.09-0.293c-0.01-0.062-0.052-0.12-0.064-0.187c-0.022-0.114 0.002-0.224 0-0.337 c-0.003-0.2 0.017-0.379-0.078-0.55c-0.38-0.688-1.236-0.929-1.975-0.789c-0.18 0.034-0.287 0.126-0.442 0.2 c-0.17 0.088-0.139 0.166-0.318 0.224c-0.081 0.026-0.216 0.124-0.215 0.224c0.001 0.1 0 0.1 0 0.2 c-0.021 0.011-0.021-0.005-0.03-0.025"/><path fill="#FFFFFF" d="M46.458-10.431c0.018 0.1 0 0.127-0.026 0.19c-0.053 0.101-0.112 0.063-0.165 0.1 c-0.05 0.063-0.099 0.276-0.079 0.362c-0.169 0.058-0.009 0.227-0.015 0.35c-0.002 0.05-0.041 0.105-0.045 0.2 c-0.01 0.1 0 0.3 0.1 0.37c0.097 0.2 0.3 0.4 0.4 0.544c0.19 0.1 0.4 0.6 0.6 0.6 c0.177 0 0.384-0.104 0.543-0.143c0.18-0.043 0.4 0 0.571-0.053c0.222-0.079 0.127-0.337 0.288-0.45 c0.104-0.074 0.287-0.01 0.406-0.051c0.2-0.069 0.339-0.263 0.376-0.46c0.016-0.082 0.01-0.145 0.039-0.221 c0.039-0.103 0.111-0.16 0.09-0.293c-0.01-0.062-0.052-0.12-0.064-0.187c-0.022-0.114 0.002-0.224 0-0.337 c-0.003-0.2 0.017-0.379-0.078-0.55c-0.38-0.688-1.236-0.929-1.975-0.789c-0.18 0.034-0.287 0.126-0.442 0.2 c-0.17 0.088-0.139 0.166-0.318 0.224c-0.081 0.026-0.216 0.124-0.215 0.224c0.001 0.1 0 0.1 0 0.2 c-0.021 0.011-0.021-0.005-0.03-0.025"/><path fill="#FFFFFF" d="M38.797-10.431c0.018 0.1 0 0.127-0.026 0.19c-0.053 0.101-0.112 0.063-0.165 0.1 c-0.05 0.063-0.099 0.276-0.079 0.362c-0.169 0.058-0.009 0.227-0.015 0.35c-0.002 0.05-0.041 0.105-0.045 0.2 c-0.01 0.1 0 0.3 0.1 0.37c0.097 0.2 0.3 0.4 0.4 0.544c0.19 0.1 0.4 0.6 0.6 0.6 c0.177 0 0.384-0.104 0.543-0.143c0.18-0.043 0.4 0 0.571-0.053c0.222-0.079 0.127-0.337 0.288-0.45 c0.104-0.074 0.287-0.01 0.406-0.051c0.2-0.069 0.339-0.263 0.376-0.46c0.016-0.082 0.01-0.145 0.039-0.221 c0.039-0.103 0.111-0.16 0.09-0.293c-0.01-0.062-0.052-0.12-0.064-0.187c-0.022-0.114 0.002-0.224 0-0.337 c-0.003-0.2 0.017-0.379-0.078-0.55c-0.38-0.688-1.236-0.929-1.975-0.789c-0.18 0.034-0.287 0.126-0.442 0.2 c-0.17 0.088-0.139 0.166-0.318 0.224c-0.081 0.026-0.216 0.124-0.215 0.224c0.001 0.1 0 0.1 0 0.2 c-0.021 0.011-0.021-0.005-0.03-0.025"/><path fill="#FFFFFF" d="M31.137-10.431c0.018 0.1 0 0.127-0.026 0.19c-0.053 0.101-0.112 0.063-0.165 0.1 c-0.05 0.063-0.099 0.276-0.079 0.362c-0.169 0.058-0.009 0.227-0.015 0.35c-0.002 0.05-0.041 0.105-0.045 0.2 c-0.01 0.1 0 0.3 0.1 0.37c0.097 0.2 0.3 0.4 0.4 0.544c0.19 0.1 0.4 0.6 0.6 0.6 c0.177 0 0.384-0.104 0.543-0.143c0.18-0.043 0.4 0 0.571-0.053c0.222-0.079 0.127-0.337 0.288-0.45 c0.104-0.074 0.287-0.01 0.406-0.051c0.2-0.069 0.339-0.263 0.376-0.46c0.016-0.082 0.01-0.145 0.039-0.221 c0.039-0.103 0.111-0.16 0.09-0.293c-0.01-0.062-0.052-0.12-0.064-0.187c-0.022-0.114 0.002-0.224 0-0.337 c-0.003-0.2 0.017-0.379-0.078-0.55c-0.38-0.688-1.236-0.929-1.975-0.789c-0.18 0.034-0.287 0.126-0.442 0.2 c-0.17 0.088-0.139 0.166-0.318 0.224c-0.081 0.026-0.216 0.124-0.215 0.224c0.001 0.1 0 0.1 0 0.2 c-0.021 0.011-0.021-0.005-0.03-0.025"/><path fill="#FFFFFF" d="M23.477-10.431c0.018 0.1 0 0.127-0.026 0.19c-0.053 0.101-0.112 0.063-0.165 0.1 c-0.05 0.063-0.099 0.276-0.079 0.362c-0.169 0.058-0.009 0.227-0.015 0.35c-0.002 0.05-0.041 0.105-0.045 0.2 c-0.01 0.1 0 0.3 0.1 0.37c0.097 0.2 0.3 0.4 0.4 0.544c0.19 0.1 0.4 0.6 0.6 0.6 c0.177 0 0.384-0.104 0.543-0.143c0.18-0.043 0.4 0 0.571-0.053c0.222-0.079 0.127-0.337 0.288-0.45 c0.104-0.074 0.287-0.01 0.406-0.051c0.2-0.069 0.339-0.263 0.376-0.46c0.016-0.082 0.01-0.145 0.039-0.221 c0.039-0.103 0.111-0.16 0.09-0.293c-0.01-0.062-0.052-0.12-0.064-0.187c-0.022-0.114 0.002-0.224 0-0.337 c-0.003-0.2 0.017-0.379-0.078-0.55c-0.38-0.688-1.236-0.929-1.975-0.789c-0.18 0.034-0.287 0.126-0.442 0.2 c-0.17 0.088-0.139 0.166-0.318 0.224c-0.081 0.026-0.216 0.124-0.215 0.224c0.001 0.1 0 0.1 0 0.2 c-0.021 0.011-0.021-0.005-0.03-0.025"/><path fill="#FFFFFF" d="M15.816-10.431c0.018 0.1 0 0.127-0.026 0.19c-0.053 0.101-0.112 0.063-0.165 0.1 c-0.05 0.063-0.099 0.276-0.079 0.362c-0.169 0.058-0.009 0.227-0.015 0.35c-0.002 0.05-0.041 0.105-0.045 0.2 c-0.01 0.1 0 0.3 0.1 0.37c0.097 0.2 0.3 0.4 0.4 0.544c0.19 0.1 0.4 0.6 0.6 0.6 c0.177 0 0.384-0.104 0.543-0.143c0.18-0.043 0.4 0 0.571-0.053C17.933-7.969 17.839-8.227 18-8.34 c0.104-0.074 0.287-0.01 0.406-0.051c0.2-0.069 0.339-0.263 0.376-0.46c0.016-0.082 0.01-0.145 0.039-0.221 c0.039-0.103 0.111-0.16 0.09-0.293c-0.01-0.062-0.052-0.12-0.064-0.187c-0.022-0.114 0.002-0.224 0-0.337 c-0.003-0.2 0.017-0.379-0.078-0.55c-0.38-0.688-1.236-0.929-1.975-0.789c-0.18 0.034-0.287 0.126-0.442 0.2 c-0.17 0.088-0.139 0.166-0.318 0.224c-0.081 0.026-0.216 0.124-0.215 0.224c0.001 0.1 0 0.1 0 0.2 c-0.021 0.011-0.021-0.005-0.03-0.025"/><path fill="#FFFFFF" d="M8.156-10.431c0.018 0.1 0 0.127-0.026 0.19c-0.053 0.101-0.112 0.063-0.165 0.1 C7.915-10.05 7.866-9.836 7.886-9.75C7.717-9.692 7.876-9.523 7.871-9.4C7.868-9.351 7.83-9.295 7.826-9.239 c-0.01 0.1 0 0.3 0.1 0.37c0.097 0.2 0.3 0.4 0.4 0.544c0.19 0.1 0.4 0.6 0.6 0.6 C9.114-7.652 9.321-7.799 9.48-7.837c0.18-0.043 0.4 0 0.571-0.053c0.222-0.079 0.127-0.337 0.288-0.45 c0.104-0.074 0.287-0.01 0.406-0.051c0.2-0.069 0.339-0.263 0.376-0.46c0.016-0.082 0.01-0.145 0.039-0.221 c0.039-0.103 0.111-0.16 0.09-0.293c-0.01-0.062-0.052-0.12-0.064-0.187c-0.022-0.114 0.002-0.224 0-0.337 c-0.003-0.2 0.017-0.379-0.078-0.55c-0.38-0.688-1.236-0.929-1.975-0.789c-0.18 0.034-0.287 0.126-0.442 0.2 c-0.17 0.088-0.139 0.166-0.318 0.224c-0.081 0.026-0.216 0.124-0.215 0.224c0.001 0.1 0 0.1 0 0.2 c-0.021 0.011-0.021-0.005-0.03-0.025"/><path fill="#FFFFFF" d="M0.495-10.431c0.018 0.1 0 0.127-0.026 0.19c-0.053 0.101-0.112 0.063-0.165 0.1 C0.254-10.05 0.205-9.836 0.225-9.75C0.056-9.692 0.215-9.523 0.21-9.4c-0.002 0.05-0.041 0.105-0.045 0.2 c-0.01 0.1 0 0.3 0.1 0.37C0.33-8.671 0.501-8.456 0.668-8.325c0.19 0.1 0.4 0.6 0.6 0.6 C1.454-7.652 1.66-7.799 1.819-7.837C2-7.88 2.217-7.827 2.391-7.89c0.222-0.079 0.127-0.337 0.288-0.45 c0.104-0.074 0.287-0.01 0.406-0.051c0.2-0.069 0.339-0.263 0.376-0.46C3.477-8.933 3.471-8.995 3.5-9.071 c0.039-0.103 0.111-0.16 0.09-0.293c-0.01-0.062-0.052-0.12-0.064-0.187c-0.022-0.114 0.002-0.224 0-0.337 c-0.003-0.2 0.017-0.379-0.078-0.55c-0.38-0.688-1.236-0.929-1.975-0.789c-0.18 0.034-0.287 0.126-0.442 0.2 c-0.17 0.088-0.139 0.166-0.318 0.224c-0.081 0.026-0.216 0.124-0.215 0.224c0.001 0.1 0 0.1 0 0.2 c-0.021 0.011-0.021-0.005-0.03-0.025"/></g></g><g><path fill="#FFFFFF" d="M69.439-2.778c0.018 0.1 0 0.127-0.026 0.19C69.361-2.487 69.3-2.525 69.248-2.46 c-0.051 0.063-0.099 0.276-0.079 0.362C69-2.04 69.159-1.871 69.154-1.748c-0.002 0.05-0.041 0.105-0.045 0.2 c-0.01 0.1 0 0.3 0.1 0.37c0.097 0.2 0.3 0.4 0.4 0.544c0.19 0.1 0.4 0.6 0.6 0.6 C70.397 0 70.604-0.146 70.763-0.185c0.18-0.043 0.4 0 0.571-0.053c0.222-0.079 0.127-0.337 0.288-0.45 c0.104-0.074 0.287-0.01 0.406-0.051c0.2-0.07 0.339-0.263 0.376-0.46c0.016-0.082 0.01-0.145 0.039-0.221 c0.038-0.103 0.111-0.16 0.09-0.293c-0.01-0.062-0.051-0.12-0.064-0.187c-0.021-0.114 0.002-0.224 0-0.337 c-0.003-0.2 0.017-0.379-0.078-0.55c-0.38-0.688-1.236-0.929-1.975-0.789c-0.18 0.034-0.287 0.126-0.442 0.2 c-0.17 0.088-0.139 0.166-0.318 0.224c-0.081 0.026-0.215 0.124-0.215 0.224c0.002 0.1 0 0.1 0 0.2 c-0.021 0.011-0.021-0.005-0.03-0.025"/><path fill="#FFFFFF" d="M61.778-2.778c0.018 0.1 0 0.127-0.026 0.19C61.7-2.487 61.64-2.525 61.587-2.46 c-0.05 0.063-0.099 0.276-0.079 0.362c-0.169 0.058-0.01 0.227-0.015 0.35c-0.002 0.05-0.041 0.105-0.045 0.2 c-0.01 0.1 0 0.3 0.1 0.37c0.097 0.2 0.3 0.4 0.4 0.544c0.19 0.1 0.4 0.6 0.6 0.6 C62.737 0 62.943-0.146 63.103-0.185c0.18-0.043 0.4 0 0.571-0.053c0.222-0.079 0.127-0.337 0.288-0.45 c0.104-0.074 0.287-0.01 0.406-0.051c0.2-0.069 0.339-0.263 0.376-0.46c0.016-0.082 0.01-0.145 0.039-0.221 c0.039-0.103 0.111-0.16 0.09-0.293c-0.01-0.062-0.052-0.12-0.064-0.187c-0.022-0.114 0.002-0.224 0-0.337 c-0.003-0.2 0.017-0.379-0.078-0.55c-0.38-0.688-1.236-0.929-1.975-0.789c-0.18 0.034-0.287 0.126-0.442 0.2 c-0.17 0.088-0.139 0.166-0.318 0.224C61.915-3.117 61.78-3.02 61.781-2.92c0.001 0.1 0 0.1 0 0.2 c-0.021 0.011-0.021-0.005-0.03-0.025"/><path fill="#FFFFFF" d="M54.118-2.778c0.018 0.1 0 0.127-0.026 0.19C54.04-2.487 53.98-2.525 53.927-2.46 c-0.05 0.063-0.099 0.276-0.079 0.362c-0.169 0.058-0.01 0.227-0.015 0.35c-0.002 0.05-0.041 0.105-0.045 0.2 c-0.01 0.1 0 0.3 0.1 0.37c0.097 0.2 0.3 0.4 0.4 0.544c0.19 0.1 0.4 0.6 0.6 0.6 C55.077 0 55.283-0.146 55.442-0.185c0.18-0.043 0.4 0 0.571-0.053c0.222-0.079 0.127-0.337 0.288-0.45 c0.104-0.074 0.287-0.01 0.406-0.051c0.2-0.069 0.339-0.263 0.376-0.46c0.016-0.082 0.01-0.145 0.039-0.221 c0.039-0.103 0.111-0.16 0.09-0.293c-0.01-0.062-0.052-0.12-0.064-0.187c-0.022-0.114 0.002-0.224 0-0.337 c-0.003-0.2 0.017-0.379-0.078-0.55c-0.38-0.688-1.236-0.929-1.975-0.789c-0.18 0.034-0.287 0.126-0.442 0.2 c-0.17 0.088-0.139 0.166-0.318 0.224C54.255-3.117 54.12-3.02 54.121-2.92c0.001 0.1 0 0.1 0 0.2 c-0.021 0.011-0.021-0.005-0.03-0.025"/><path fill="#FFFFFF" d="M46.458-2.778c0.018 0.1 0 0.127-0.026 0.19c-0.053 0.101-0.112 0.063-0.165 0.1 c-0.05 0.063-0.099 0.276-0.079 0.362c-0.169 0.058-0.01 0.227-0.015 0.35c-0.002 0.05-0.041 0.105-0.045 0.2 c-0.01 0.1 0 0.3 0.1 0.37c0.097 0.2 0.3 0.4 0.4 0.544c0.19 0.1 0.4 0.6 0.6 0.6 C47.416 0 47.623-0.146 47.782-0.185c0.18-0.043 0.4 0 0.571-0.053c0.222-0.079 0.127-0.337 0.288-0.45 c0.104-0.074 0.287-0.01 0.406-0.051c0.2-0.069 0.339-0.263 0.376-0.46c0.016-0.082 0.01-0.145 0.039-0.221 c0.039-0.103 0.111-0.16 0.09-0.293c-0.01-0.062-0.052-0.12-0.064-0.187c-0.022-0.114 0.002-0.224 0-0.337 c-0.003-0.2 0.017-0.379-0.078-0.55c-0.38-0.688-1.236-0.929-1.975-0.789c-0.18 0.034-0.287 0.126-0.442 0.2 c-0.17 0.088-0.139 0.166-0.318 0.224C46.594-3.117 46.459-3.02 46.46-2.92c0.001 0.1 0 0.1 0 0.2 c-0.021 0.011-0.021-0.005-0.03-0.025"/><path fill="#FFFFFF" d="M38.797-2.778c0.018 0.1 0 0.127-0.026 0.19c-0.053 0.101-0.112 0.063-0.165 0.1 c-0.05 0.063-0.099 0.276-0.079 0.362c-0.169 0.058-0.01 0.227-0.015 0.35c-0.002 0.05-0.041 0.105-0.045 0.2 c-0.01 0.1 0 0.3 0.1 0.37c0.097 0.2 0.3 0.4 0.4 0.544c0.19 0.1 0.4 0.6 0.6 0.6 C39.756 0 39.962-0.146 40.122-0.185c0.18-0.043 0.4 0 0.571-0.053c0.222-0.079 0.127-0.337 0.288-0.45 c0.104-0.074 0.287-0.01 0.406-0.051c0.2-0.069 0.339-0.263 0.376-0.46c0.016-0.082 0.01-0.145 0.039-0.221 c0.039-0.103 0.111-0.16 0.09-0.293c-0.01-0.062-0.052-0.12-0.064-0.187c-0.022-0.114 0.002-0.224 0-0.337 c-0.003-0.2 0.017-0.379-0.078-0.55c-0.38-0.688-1.236-0.929-1.975-0.789c-0.18 0.034-0.287 0.126-0.442 0.2 c-0.17 0.088-0.139 0.166-0.318 0.224C38.934-3.117 38.799-3.02 38.8-2.92c0.001 0.1 0 0.1 0 0.2 c-0.021 0.011-0.021-0.005-0.03-0.025"/><path fill="#FFFFFF" d="M31.137-2.778c0.018 0.1 0 0.127-0.026 0.19c-0.053 0.101-0.112 0.063-0.165 0.1 c-0.05 0.063-0.099 0.276-0.079 0.362c-0.169 0.058-0.01 0.227-0.015 0.35c-0.002 0.05-0.041 0.105-0.045 0.2 c-0.01 0.1 0 0.3 0.1 0.37c0.097 0.2 0.3 0.4 0.4 0.544c0.19 0.1 0.4 0.6 0.6 0.6 C32.095 0 32.302-0.146 32.461-0.185c0.18-0.043 0.4 0 0.571-0.053c0.222-0.079 0.127-0.337 0.288-0.45 c0.104-0.074 0.287-0.01 0.406-0.051c0.2-0.069 0.339-0.263 0.376-0.46c0.016-0.082 0.01-0.145 0.039-0.221 c0.039-0.103 0.111-0.16 0.09-0.293c-0.01-0.062-0.052-0.12-0.064-0.187c-0.022-0.114 0.002-0.224 0-0.337 c-0.003-0.2 0.017-0.379-0.078-0.55c-0.38-0.688-1.236-0.929-1.975-0.789c-0.18 0.034-0.287 0.126-0.442 0.2 c-0.17 0.088-0.139 0.166-0.318 0.224C31.273-3.117 31.139-3.02 31.14-2.92c0.001 0.1 0 0.1 0 0.2 c-0.021 0.011-0.021-0.005-0.03-0.025"/><path fill="#FFFFFF" d="M23.477-2.778c0.018 0.1 0 0.127-0.026 0.19c-0.053 0.101-0.112 0.063-0.165 0.1 c-0.05 0.063-0.099 0.276-0.079 0.362c-0.169 0.058-0.01 0.227-0.015 0.35c-0.002 0.05-0.041 0.105-0.045 0.2 c-0.01 0.1 0 0.3 0.1 0.37c0.097 0.2 0.3 0.4 0.4 0.544c0.19 0.1 0.4 0.6 0.6 0.6 C24.435 0 24.642-0.146 24.801-0.185c0.18-0.043 0.4 0 0.571-0.053c0.222-0.079 0.127-0.337 0.288-0.45 c0.104-0.074 0.287-0.01 0.406-0.051c0.2-0.069 0.339-0.263 0.376-0.46c0.016-0.082 0.01-0.145 0.039-0.221 c0.039-0.103 0.111-0.16 0.09-0.293c-0.01-0.062-0.052-0.12-0.064-0.187c-0.022-0.114 0.002-0.224 0-0.337 c-0.003-0.2 0.017-0.379-0.078-0.55c-0.38-0.688-1.236-0.929-1.975-0.789c-0.18 0.034-0.287 0.126-0.442 0.2 c-0.17 0.088-0.139 0.166-0.318 0.224c-0.081 0.026-0.216 0.124-0.215 0.224c0.001 0.1 0 0.1 0 0.2 c-0.021 0.011-0.021-0.005-0.03-0.025"/><path fill="#FFFFFF" d="M15.816-2.778c0.018 0.1 0 0.127-0.026 0.19c-0.053 0.101-0.112 0.063-0.165 0.1 c-0.05 0.063-0.099 0.276-0.079 0.362c-0.169 0.058-0.01 0.227-0.015 0.35c-0.002 0.05-0.041 0.105-0.045 0.2 c-0.01 0.1 0 0.3 0.1 0.37c0.097 0.2 0.3 0.4 0.4 0.544c0.19 0.1 0.4 0.6 0.6 0.6 C16.774 0 16.981-0.146 17.14-0.185c0.18-0.043 0.4 0 0.571-0.053c0.222-0.079 0.127-0.337 0.288-0.45 c0.104-0.074 0.287-0.01 0.406-0.051c0.2-0.069 0.339-0.263 0.376-0.46c0.016-0.082 0.01-0.145 0.039-0.221 c0.039-0.103 0.111-0.16 0.09-0.293c-0.01-0.062-0.052-0.12-0.064-0.187c-0.022-0.114 0.002-0.224 0-0.337 c-0.003-0.2 0.017-0.379-0.078-0.55c-0.38-0.688-1.236-0.929-1.975-0.789c-0.18 0.034-0.287 0.126-0.442 0.2 c-0.17 0.088-0.139 0.166-0.318 0.224c-0.081 0.026-0.216 0.124-0.215 0.224c0.001 0.1 0 0.1 0 0.2 C15.81-2.74 15.809-2.756 15.8-2.776"/><path fill="#FFFFFF" d="M8.156-2.778c0.018 0.1 0 0.127-0.026 0.19C8.077-2.487 8.018-2.525 7.965-2.46 c-0.05 0.063-0.099 0.276-0.079 0.362c-0.169 0.058-0.01 0.227-0.015 0.35C7.868-1.698 7.83-1.643 7.826-1.587 c-0.01 0.1 0 0.3 0.1 0.37c0.097 0.2 0.3 0.4 0.4 0.544c0.19 0.1 0.4 0.6 0.6 0.6 C9.114 0 9.321-0.146 9.48-0.185c0.18-0.043 0.4 0 0.571-0.053c0.222-0.079 0.127-0.337 0.288-0.45 c0.104-0.074 0.287-0.01 0.406-0.051c0.2-0.069 0.339-0.263 0.376-0.46c0.016-0.082 0.01-0.145 0.039-0.221 c0.039-0.103 0.111-0.16 0.09-0.293c-0.01-0.062-0.052-0.12-0.064-0.187c-0.022-0.114 0.002-0.224 0-0.337 c-0.003-0.2 0.017-0.379-0.078-0.55c-0.38-0.688-1.236-0.929-1.975-0.789C8.954-3.54 8.847-3.448 8.692-3.367 c-0.17 0.088-0.139 0.166-0.318 0.224C8.292-3.117 8.158-3.02 8.159-2.92C8.16-2.805 8.164-2.869 8.17-2.751 C8.15-2.74 8.149-2.756 8.14-2.776"/><path fill="#FFFFFF" d="M0.495-2.778c0.018 0.1 0 0.127-0.026 0.19C0.417-2.487 0.356-2.525 0.304-2.46 C0.253-2.397 0.205-2.184 0.225-2.098C0.056-2.04 0.215-1.871 0.21-1.748c-0.002 0.05-0.041 0.105-0.045 0.2 c-0.01 0.1 0 0.3 0.1 0.37C0.33-1.019 0.501-0.804 0.668-0.673c0.19 0.1 0.4 0.6 0.6 0.6 C1.454 0 1.66-0.146 1.819-0.185C2-0.228 2.217-0.175 2.391-0.237c0.222-0.079 0.127-0.337 0.288-0.45 c0.104-0.074 0.287-0.01 0.406-0.051c0.2-0.07 0.339-0.263 0.376-0.46C3.477-1.28 3.471-1.343 3.5-1.419 c0.038-0.103 0.111-0.16 0.09-0.293c-0.01-0.062-0.051-0.12-0.064-0.187c-0.021-0.114 0.002-0.224 0-0.337 c-0.003-0.2 0.017-0.379-0.078-0.55c-0.38-0.688-1.236-0.929-1.975-0.789C1.293-3.54 1.187-3.448 1.031-3.367 c-0.17 0.088-0.139 0.166-0.318 0.224C0.632-3.117 0.498-3.02 0.498-2.92C0.5-2.805 0.503-2.869 0.51-2.751 C0.489-2.74 0.488-2.756 0.479-2.776"/></g></g></pattern><g><g><path fill="#CD6699" d="M58.031 43.773c-2.24 5.512-6.781 10.627-13.622 15.35c-6.842 4.723-13.32 7.082-19.435 7.1 c-9.809 0-14.712-5.387-14.712-16.166c0-6.961 1.801-13.816 5.403-20.569c3.602-6.75 8.34-12.244 14.213-16.483 C35.75 8.8 41.8 6.6 48 6.63c4.662 0 7 1.8 7 5.267c0 2.301-0.999 4.268-2.997 5.9 c-1.998 1.635-4.178 2.452-6.539 2.452c-0.848 0-1.604-0.121-2.27-0.363c-0.727 1.03-1.09 1.998-1.09 2.9 s0.423 1.6 1.3 2.225c0.847 0.6 1.9 0.9 3.3 0.863c2.845 0 5.585-0.847 8.219-2.543 c2.634-1.694 4.435-3.783 5.404-6.266c0.484-1.331 0.726-2.542 0.726-3.633c0-2.965-1.484-5.403-4.45-7.311 C53.521 4.2 49.3 3.3 43.7 3.27c-5.571 0-11.216 1.514-16.938 4.541c-5.721 3.028-10.489 6.888-14.303 11.6 c-3.815 4.693-6.843 9.778-9.082 15.257C1.12 40.1 0 45.4 0 50.404c0 13.3 7.1 19.9 21.3 19.9 c6.114 0 12.108-1.195 17.981-3.588c5.872-2.391 10.746-5.6 14.622-9.627c3.874-4.025 5.813-7.4 5.813-10.127 C59.757 45.6 59.2 44.6 58 43.773z M145.213 23.976c0.484-1.09 1.285-2.149 2.407-3.179 c1.119-1.028 2.284-1.543 3.496-1.543h0.363c1.149-0.726 1.725-1.558 1.725-2.498c0-0.938-0.332-1.709-0.998-2.315 c-0.667-0.604-1.666-0.908-2.997-0.908c-1.333 0-2.725 0.803-4.178 2.406c-1.452 1.605-2.18 3.194-2.18 4.8 C142.852 22.3 143.6 23.4 145.2 23.976z M212.054 43.955c-0.182 0-0.396 0.213-0.636 0.6 c-2.423 4.602-4.587 8.127-6.493 10.58c-1.907 2.451-4.208 4.662-6.903 6.629c-2.694 1.969-5.313 2.951-7.854 3 c-4.301 0-6.448-2.543-6.448-7.627c0-2.363 0.574-5.088 1.725-8.176c1.212 0.7 3.1 1 5.6 1 c4.358 0 8.143-1.029 11.352-3.088s4.813-4.781 4.813-8.172c0-1.998-0.817-3.709-2.452-5.132 c-1.635-1.421-3.813-2.134-6.539-2.134c-6.055 0-11.352 2.634-15.893 7.901c-2.136 2.479-3.751 5.062-4.882 7.7 c-0.711 1.182-1.518 2.517-2.429 4.02c-1.121 1.848-2.149 3.361-3.088 4.541c-0.939 1.182-2.119 2.303-3.542 3.4 s-2.528 1.619-3.314 1.68c-1.211 0-1.816-0.877-1.816-2.633s0.499-4.043 1.498-6.857c0.999-2.816 1.907-5.055 2.725-6.721 c0.818-1.664 2.058-4.133 3.724-7.4c1.665-3.271 2.951-5.237 3.86-5.904h-0.909l-4.632-0.091c-2.179 0-4.328 1.514-6.447 4.5 c-0.242 0.061-0.605 0.091-1.09 0.091c-1.695 0-3.133-0.468-4.313-1.408c-1.181-0.938-1.771-2.225-1.771-3.86 c0-0.727 0.06-1.271 0.182-1.634c-0.849-0.847-1.938-1.272-3.269-1.272c-1.333 0-2.377 0.485-3.134 1.5 c-0.758 0.969-1.136 2.059-1.136 3.269c0 2.4 1.1 4.2 3.3 5.268c-0.062 0.182-0.53 1.09-1.408 2.7 s-1.695 3.346-2.452 5.131c-0.069 0.162-0.118 0.305-0.181 0.461c-0.113 0.18-0.232 0.37-0.364 0.6 c-0.816 1.332-1.786 2.906-2.905 4.721c-1.121 1.818-2.135 3.316-3.043 4.496c-0.908 1.182-2.074 2.303-3.496 3.4 c-1.423 1.059-2.529 1.588-3.315 1.588c-1.15 0-1.725-0.875-1.725-2.633c0-1.756 0.5-4.025 1.498-6.813 c0.999-2.783 1.892-4.994 2.68-6.629c0.785-1.633 1.981-4.055 3.587-7.266c1.603-3.208 2.891-5.176 3.859-5.902h-0.908 l-4.541-0.091c-2.604 0-4.965 1.816-7.083 5.45c-2.237 3.961-3.973 7.765-5.214 11.414c-4.699 8.305-8.624 12.469-11.768 12.5 c-1.09 0-1.636-0.785-1.636-2.361c0-3.025 1.453-7.854 4.359-14.484c2.905-6.629 5.358-10.762 7.356-12.396h-0.908l-4.541-0.091 c-1.212 0-2.513 0.515-3.905 1.544c-1.394 1.03-2.423 2.241-3.088 3.633c-0.545-1.938-1.665-3.345-3.359-4.223 c-1.696-0.877-3.513-1.317-5.45-1.317c-4.118 0-7.901 1.53-11.352 4.586c-3.452 3.057-6.101 6.766-7.947 11.1 c-0.047 0.11-0.086 0.221-0.131 0.331c-0.75 1.221-1.609 2.616-2.592 4.208c-1.121 1.818-2.104 3.287-2.951 4.4 c-0.849 1.121-2.195 2.438-4.042 3.949C73.03 61 71.4 61.8 70.1 61.756c-1.333 0-1.998-0.908-1.998-2.725 c-0.061-1.271 0.241-3.42 0.908-6.447c0.666-3.027 1.362-5.602 2.089-7.721l1.454-4.176c3.571-3.391 7.597-7.887 12.079-13.488 c4.479-5.6 7.81-10.61 9.99-15.03c1.392-2.543 2.089-5.025 2.089-7.447C96.719 1.6 95 0 91.5 0 c-3.451 0-6.661 1.757-9.627 5.268c-1.514 1.757-2.892 3.482-4.132 5.177c-1.241 1.696-2.528 3.966-3.859 6.8 c-1.332 2.847-2.392 5.131-3.178 6.856c-0.788 1.726-1.726 4.133-2.816 7.221c-1.089 3.087-1.786 5.117-2.088 6.1 c-4.057 11.322-6.085 19.254-6.085 23.795c0 4.6 1.7 6.9 5.1 6.902c4.419 0 8.718-2.301 12.896-6.902 c1.235-1.381 2.705-3.375 4.399-5.956c-0.203 1.417-0.313 2.827-0.313 4.229c0 5.6 2 8.4 6.1 8.4 c5.872 0 12.261-6.113 19.162-18.344c-1.271 3.631-1.906 7.326-1.906 11.078c0 5 1.6 7.5 4.9 7.5 c4.15 0 9.128-4.285 14.93-12.832c-0.325 1.967-0.49 3.884-0.49 5.748c0 4.7 1.7 7.1 5.1 7.1 c1.938 0 4.088-0.938 6.449-2.816c2.36-1.875 4.464-4.07 6.312-6.584c1.587-2.16 3.321-4.782 5.2-7.86 c0.711-0.894 2.957-5.065 6.741-12.528c0.727 0.3 1.4 0.5 2.1 0.455c2.118 0 4.237-0.848 6.357-2.543 c-2.604 4.057-4.571 8.264-5.903 12.623s-1.998 8.266-1.998 11.715c0 5.1 1.7 7.6 5.2 7.6 c1.938 0 4.102-0.953 6.494-2.861c2.391-1.906 4.435-4.01 6.129-6.311c0.875-1.188 1.874-2.647 2.992-4.369 c-0.045 0.605-0.085 1.212-0.085 1.826c0 4.1 1.2 7.1 3.5 9.037c2.361 2 5.5 3 9.3 3 c3.844 0 7.675-1.393 11.489-4.178c1.513-1.15 3.057-2.693 4.632-4.631c1.573-1.938 2.829-3.633 3.769-5.086 c0.938-1.455 1.892-2.998 2.86-4.633c0.968-1.635 1.452-3.043 1.452-4.223S212.417 44 212.1 43.955z M191.983 38.5 c2.905-2.905 5.539-4.358 7.901-4.358c1.693 0 2.5 0.9 2.5 2.634c-0.243 2.604-1.62 5.027-4.132 7.3 c-2.514 2.24-4.92 3.359-7.22 3.359c-2.302 0-3.451-0.604-3.451-1.816C187.624 43.8 189.1 41.4 192 38.506z M92.087 2.271h0.635c0.786 0 1.2 0.6 1.2 1.771c0 1.18-0.849 3.678-2.543 7.492c-3.028 6.236-8.689 14.228-16.982 24 C82.49 13.4 88.4 2.3 92.1 2.271z M104.074 50.404c-1.696 2.664-3.603 4.979-5.722 6.9 c-2.12 1.967-3.966 2.951-5.54 2.951c-1.454 0-2.18-0.938-2.18-2.816c0-4.359 1.876-9.307 5.631-14.848 c3.753-5.539 7.628-8.31 11.624-8.31c2.239 0 3.7 1 4.3 2.905C110.521 40.1 107.8 44.5 104.1 50.404z"/></g></g></svg>